<mxfile host="65bd71144e">
    <diagram id="_EjfKC80q6R6cBjx05Fj" name="PÃ¡gina-1">
        <mxGraphModel dx="662" dy="411" grid="1" gridSize="10" guides="1" tooltips="1" connect="1" arrows="1" fold="1" page="1" pageScale="1" pageWidth="827" pageHeight="1169" math="0" shadow="0">
            <root>
                <mxCell id="0"/>
                <mxCell id="1" parent="0"/>
                <mxCell id="2" value="" style="shape=image;verticalLabelPosition=bottom;labelBackgroundColor=default;verticalAlign=top;aspect=fixed;imageAspect=0;image=data:image/png,iVBORw0KGgoAAAANSUhEUgAAA/YAAAJqCAYAAACBy9vYAAAABHNCSVQICAgIfAhkiAAAIABJREFUeJzs3Xd4ndWZ7/3verZ6syRbsmzZuGCw6UammBYCIZMeUmdCyEwmjSSknPecuSaZTOadzJycM3PemcyZEkJLoyWQkEAghJJCCb1YxtgYMBgwbpKLXGTJKnvv9f6x7WAIBhdpF+n7uRCWdnnWvY2uzfPba637CUiSJGk8S4BKIlWHQ/lWaGxfzOzyRcxMtqTmhKFwONnYlsnGiWSpj1lqIlQQQxkhBoAYQwwhpgMMhYT+ENielIXNIYnrs5XhmWxj5vn0iby45lhWToRtT8EwgUFgEMgW9NVL0hgQCl2AJEmS8qqCW5n+3ncwOYHJvb/hsPTyspPijuSkmGF6qjwhlSSxrCKJlZWppLwqRVlZIJUKpJJAsusrhPDymWSEGCPZbO4rk8l9pTORoYE0QwPZbHoom2RilsxQllDOC6E++2j5UelH687mWWDjL2bQxUusBoYL+HcjSSXJYC9JkjT21Z22mhNaWjhiy93MSD1VsTAZLjuhLJXUlpUlVFSlqKxJUVGekEolAESAGF9xkFf9uFfhFWeYYfc/AKQzWYaHsgzsTDM8kCWdzpLOZHcMV6YfDkcOPTLhzaza0MVTD07nMaD/4F62JI0PBntJkqSx6/RTbuDczEbmTBioPqKC8rmVVSnKy3Nhvqws5FL4rsS+r8H9YP0h+IdAjJFMOjI4mInpwWwYHEwzxPBT26oHnk5N5NkHP8j1wGP5qUySSpPBXpIkaWypOPH/8umBIc6vi2VNLQ21R9TVl5OkAmVlyR9Cdb5C/L7aXVc2QmY4SzYT6e0dpnt735MDqXQPNVz5xJe4AsgUsk5JKkYGe0mSpLHgXBpPOiP8fbonfLSpqaJhcltddUVF6g/L4IstyL+REHZvB4DBwQzdXTt2bt02tC01MV7x6P+I38Rl+pL0BwZ7SZKk0pV6X2T6qn/jE5Vby/6+uaVmeGJrVXl5WUKMseTC/N6EACEEhoczbOoeGN68cWdZZmr67yd/gatvDazGzvqSxjmDvSRJUgk6NzJt62/5UFhc8d+qyyvbJ02uKi8vT5HNjpE0vxdJEhgcyrC5e2B4IA68kJw8/O3a0/jZLwNdha5NkgrFYC9JklRiTnuQDySPJ5+vH6g9dUJzZU1VdWrMzM7vi9378Xf2p9naM9i3o7bv3v5D43c6z+GWwlYmSYVhsJckSSohp13BP7Ku7GNTWhtm19aVxyQhjKdQv6cQIJONsX9HOqzt2vZcxdHxsnvel/1WoeuSpHwz2EuSJJWGsoWXcEXF5sp3zJrT2BwSdnWXEwFiFlas2LIxNW3oxvs+yYXYPV/SOGKwlyRJKn7TTruIq6p31p05fWZdEsf4PvoDsuusds0LOxhs6rvl3gv4DLjvXtL4YLCXJEkqYm2Rtrk/TC6t2V57buuUGk/e3kCMke51/QxO7rvuro/GCwlsKXRNkjTaUoUuQJIkSXt38tGpfy1bX3P+5PYakiSY699AkgSqa8vjjtUcNWdztur56+Idha5JkkabwV6SJKlILbys/NPhpfK/njazrqIsFYJ76vdNKgmhtr6cDcvTR7W9P/v8utvjk4WuSZJGU1LoAiRJkvTadj6fvmjajNr6slTIW+f7yBCRwdd9RDbu2Ot9kWFigfvWxQhlZSEcMquuYaA7e1FBi5GkPDDYS5IkFaFjv8nFU9rqYlVVWd6uUR8Zoio1g5qyQ4H0az4ihEhL1ZteI9xHAuXUls2kMmkpinBfXV1G28Taqo7/4F8KWowkjTKDvSRJUvGpyaZ55+SpNVXZPHbA35nZwrmHf5Xz5/8dZal++jPdpLObGMh0M5TtJhP7aaiu5RMn/j070n1k4wCDmW76M90MZzdQX9HOWXP+lCNa3kI6u4nBbDc7dz23EEE/m420TamtH+7nnUB13guQpDwpK3QBkiRJeqXD/p1zWzOVlUmSuz57PmWyw6SzZfSnd/LReVewZONNHDHpLWwf2MijXT+if2gzS9c9TCpAc9U8TpjyYZqr23lk/XW8tO0xVvWsoKd/IyTwtkP+iabqKWzqX82D677BcLqZEPJ7+plKBVoqKhuOvmbw7cs+xo15HVyS8sQZe0mSpCIzsY2T62qq2grZLK83DeccdS5zJx9HOjPIyTPfyoLWv6C6YgtnzzuXDHDGzD/jkObZpLMDfLTj60yun8Ex7ScxteEw3n/YxcxoOYR0ZpjDW4/h3XO+y1DcXJDXUlNVOW3SRDoKMrgk5YHBXpIkqdikmVJdXeCFlQHS2TRPdv+OK5/6K3bsHKSlbkru9kyaWfVn0FTXzH0v3sj3l32C3z11M+lMQjZmCGGYEw45m4df+D0/WH4Bz3QvZXLjZJqqZhLja+3dH8WXEaC6qixk0kzO68CSlEcGe0mSpCKTiVSmyorjNG3djnupSUEmpokhty8gEmkoP4SypIKtQy/SUFbLXWv+F8PpLESorqgiHQfoHdhOXQp6B3sYym6nvmImkeG8v4ZUWSALFXkfWJLypDj+jyFJkqQ/SBKGMuk8b67fm/CKP3Z9H+hNryVLmqaKmfSm+zh1ypeoqawEYGB4gPKkmtrKOvozUFfRREWop3doFYVo8ZTJRJJQgE8UJClPbJ4nSZJUZJKEroGdaWpq83+qloQUSUgIQCpJ/SHQ7749CZBKynih9256+/+M02Z+gFmNJ7Fg5kKuWPQ/SJIU2UwZS9bcx8kzT2d6wxFMn3gIG7f3sGXgBSqT/K6IjxEGBtIxgQ15HViS8sgZe0mSpCIzOMTDvQMDG/M9bnmAFZseZ/n6TmoSuH/Fb8lmoCoFy9Y/wspNS9k5WMXDz99NiHDX8z9iU283bfUzuX7Jt+javpoVXcvYsGMNP3n6U2zYtoXW+nZW9zzPTc/+JRVhYr5fEgD9g4Pr+gboLMjgkpQH4Y0fIkmSpDyrP/obLD3hyMkz8j3wcLabCFQkrfRnNlCdaiGQMJTtJgFSYRID2U1UpyaTjf0MZnvJRqhMIJVMIp3dRBKqSEI9g5mNZIEUUJGaRCCV75dDJht54oUNy5b8LacAO/JegCTlgUvxJUmSik9vSLhzY9fO8ydPranIZvN33bvyPZbK16Re/r5ij9urd92ehBqqUzV7fX5VqrCN6JMk0LWurz9bzt0Y6iWNYc7YS5IkFadw3FdC5phjJ4XyioRYwGval6IQYGgoyxNPbty29J9pAvwblDRmucdekiSpOMXQlvrimlU7dmSyMQanY/ZZCJDNxOxLK3t3pCuSL2KolzTG5X+jkyRJkvZJ1x3Zx2Z9PB4+0M2xtXXlIZju31AIucvbda3tz4YZg1c9+uXsPxW6Jkkabc7YS5IkFa/40l9kvj7Q0P+bjRt2uhx/H2QicWNXP+mW/lvu/Gjm64WuR5LywY99JUmSilxtZM78b4cf1KXrTp86vTbEPDbTKykB1r/Ux47avjvu/1z8LIFVhS5JkvLBYC9JklQaGk78D66t2Vl92uw5DRNixJ3ju4QABHjuma09w5MG73zoc3wS6C10XZKUL+6xlyRJKg2D627nx5Pfn560de3QjOqq8oaysoRkHG+sDAEixP6+dFj5fM/q7NThSx+6gC8AQ4WuTZLyyRl7SZKkEnPC7fx5+Yrks83UHT+hsaKmsio1vvbfh9xJ7MBAhm09g309yY7OzNR40aMf4qeFLk2SCsFgL0mSVII+Hpn13M2cX7mi4rM1lVWTm1qqysvLErJjfP99kgSGhjJs2TSY7k8PrM7OG/pu2zu55ieB1YWuTZIKxWAvSZJUuso/HJm38j85v3pLxVebJlWnmydVlpWNtYAfIAmB4XSWno0Dw1s27iwbah/+37M+y3XXB54B0oUuUZIKyWAvSZJU+sqOjUyr+pfwD9me5CNNEyvL2qbVpsrLU8QYS3aZfggQQm6Gft3avuz2zYNDoSl7dc9X4zdWBjZioJckwGAvSZI01lQe+U98gUE+NaG8vGbypNqZdXXlJEkgSYVcB3kourC/Z12ZTCRmI729w6zfsOOFHdl0b6zisqe+xmVApqCFSlIRMthLkiSNXeec+AM+HHuZ3UT17OpUxezKqhRl5QllFQllqVeeCuYr7Ic9ho3kgnx6MEt6OMvAQIaBOPTs5rDzxbI6Vj7yCa4B7s9PZZJUmgz2kiRJY1/DwiWc2lDD/P7HmV6xrnJB2XDZseXlqeqyslzIr6xKKC9PSKUS/pDv90j6+xv69wzvu38IQCaTZXg4y+DOLOmhLOl0huFMtj+dSj8+NGOws/ZoVveu5vEHzuYBYMdBvGZJGjcM9pIkSeNL1bTfcNjJ59AeoG3zr5iVfb58fuhLnUCGqWUVCUlISFUksaIiCRWVCamyQJIEUqmEJOQ604fw6tn+SDYbycZceM9mIulMZGgwQ3owxvRwNmRjLsxTFl+iNrMomZNe0vR2Xkig+9bvsKbvizyL16CXpP1msJckSRrfKoD6hZH6Zqjqg6bypczqX5TMTDaHw7M7k8Oyw7EtZuLEmA31ISEJKXKd6lNAhGw292fMQMySCUnsTVJhM2WhK6nJrkgmxWerTs6+ODSP52thWzfsXBToJTcjb5CXJEmSJKlA/ha4sNBFSNJ4lxS6AEmSJJWsgCtAJangDPaSJEk6UIZ6SSoCBntJkiRJkkqYwV6SJEmSpBJmsJckSZIkqYQZ7CVJkiRJKmEGe0mSJEmSSpjBXpIkSZKkEmawlyRJkiSphBnsJUmSJEkqYQZ7SZIkSZJKmMFekiRJkqQSZrCXJEmSJKmEGewlSZIkSSphBntJkiRJkkqYwV6SJEmSpBJmsJckSZIkqYQZ7CVJkiRJKmEGe0mSJEmSSpjBXpIkSZKkEmawlyRJkiSphBnsJUmSJEkqYQZ7SZIkSZJKmMFekiRJkqQSZrCXJEmSJKmEGewlSZIkSSphBntJkiRJkkqYwV6SJEmSpBJmsJckSZIkqYQZ7CVJkiRJKmEGe0mSJEmSSpjBXpIkSZKkEmawlyRJkiSphBnsJUmSJEkqYQZ7SZIkSZJKmMFekiRJkqQSZrCXJEmSJKmEGewlSZIkSSphBntJkiRJkkqYwV6SJEmSpBJmsJckSZIkqYQZ7CVJkiRJKmEGe0mSJEmSSpjBXpIkSZKkEmawlyRJkiSphBnsJUmSJEkqYQZ7SZIkSZJKmMFekiRJkqQSZrCXJEmSJKmEGewlSZIkSSphBntJkiTtj6OBC4FGYADYCUwCvgDMK2BdkjRuhUIXIEmSpJJyGLACuBloBgZ3fb0TmA28ULjSJEmSJEnSvrgNiK/6uq6gFUmSJEmSpH02hz8O9i0FrUiSJEmSJO2zMuASXg71/7ew5UiSJEmSpP21ENgBbAeOKnAtkjSupQpdgCRJkkrSGqASuBO4scC1SNK4Zld8SZKkMSi+k//Jdk4mkh2VAQLZdQO0lSdkWsrZSLFeRjkA5UAlt4Tb+U6hy5Gk0VBW6AIkSZI04k54rp/zpsxlTiC3CX40NO6aIuobrQEO0u4ZrFXriEf08ruCFiNJo8hgL0mSNMbEM/nk+snMqaxg9FJ9KQiQyUDNZhaFR7iy0OVI0mgx2EuSJI0th2+r4Nj6utwP4znXJ8CmHuKMCh4FNha6HkkaLcW5F0qSJEkHJC7kzJ4aTqpIQRzPqX6XDd2kw338V6HrkKTRZLCXJEkaOyZQxyl1tZQn4/zaRyFAXx9UDLMUeLrQ9UjSaDLYS5IkjRHxVA5bUc65tdWM7zX4QBJgzQaYuo1/KXQtkjTaDPaSJEljQ4oUb62oprmyYnzn+hBg507Y3sf25qe4vtD1SNJoM9hLkiSNATGh+YlyPj+pYXyHeshd5m7jFlhYxr8A2ULXI0mjzWAvSZI0FsxnYWUl06uqbZo3nIbefobp4dZC1yJJ+WCwlyRJGgOW1/G15sZCV1F4IUBvHxxTxg1hCS8Wuh5JygeDvSRJUulr25JhYdMEZ+uzWdiyA9jKbcCWQtcjSflgsJckSSpx983jf8xuI4RxfmYXAgwMQvMg9+94gEcKXY8k5UtZoQuQJEnSQamcUMcnW1pys9XjWYzQvxPatvNQgKcKXY8k5cs4/1xXkiSptMWFfLy2lVTiWR3ZLGS2s4ot3F7oWiQpn/xfgCRJUukqS5fzzsZJNGbH+d76EGDnIEzcxtLwNPcUuh5JyieDvSRJUomKC3jThjqOramyaV4SYMsmtlcNcxswXOh6JCmfDPaSJEmlqoK3Us+s0V6GH171fXid+1/r53zIZqG3m2x4lB8WYHhJKiiDvSRJUgmaCodvbuDU2prcMvTRNJSFTMzNig9nYSDzyvA+mMn9GYBszN2fz60BSYCNmyDTz5XAzvyNLEnFwWAvSZJUgtaexkmbKnlTdeXoLcMPQDoLP3sOvv9kLtT/n074zlIoS3L3ZyJ87A5Y2gNlKXhmC7z/19DVnwvc+RAjvNAFHcv51/yMKEnFxWAvSZJUeibQyDub6mA0l+FHoCIFb5sBGwfguhWwYgt86dhc4I9AVQreMxt+sDz3nK5++NhsaK3Oz77/EGDrdpiQ8AiwdvRHlKTiY7CXJEkqMfE4Dlk6xAcbakY/PGdjLqSf1Q6fuAu+fBxUl+VCPeRm7N82A+5fB+v74PfrYE4jVO3xmNHWsxWO2sn/ydNwklR0DPaSJEmlppF31dVSUV4++kMFckvwNw8A1fBgV26WPACpkAvv7XUwawL8fCXsTMP0uvzssQ8BBnbC4CBreIoHR39ESSpOBntJkqQS82CWv2lpys+MeBLg2a3wq5fgmffDb16C5ZthxzD8fj1sGQQi/Plc+NK9cEwzTK/PU7AHNvfCMcNcHnawafRHlKTiZLCXJEkqIUva+WBDDRNq8rCHPQB9aXhwPVxwBBzeDF8/MbfXfscwfGcZbOzPhfj3zMw9Z3bj6Na0Z22DQzC4ky0M8hsgnZ+RJan4lBW6AEmSJO271HS+Mq01PzPiEahOwaeOyn2IMJyGU9vg9KmweSd8fC5MqMw18Fu9Hf5sNsyfBJns6NdGgP4BOHyIW8LDPJ2HESWpaDljL0mSVDoOS5dxbF1dfjrOQy7cp3ddxx5yf6YzuW75HZOgrQYeXAd//QB86khoqMjPFoFsFnb0kWYHDwBb8zCkJBUtZ+wlSZJKRDyVL62dTEXB6yA3k19dk/u5pRq+cQLMnpD7EGC0BWAoDY19PBoe4u7RH1GSipvBXpIkqTRMemmYk1qbSfKxDP+NxF3/iuQ64kNuFUFeSgvQuwPaBlgKLsOXJJfiS5IklYC4kI/GKRyXShW6kj+WjbmvfH3eECPs6ObFcC8/zNOQklTUDPaSJEnFr4oqzprQSFUIhS6lsEKAgQFo7Gcd8FCh65GkYuBSfEmSpCIXT+DUtXUc11RB/qbFi1QSYF0X2e4XuKzQtUhSsXDGXpIkqbglVHBqpppZFWXjPtczPAxbt7H1zI1cU+haJKlYGOwlSZKKWGxhxvoJvGdCDbl28ONYkkDXZmhP+BGQh/77klQaDPaSJEnFbDbH9qU4qaY6f9euL1bZDGzbCtPu518LXYskFRODvSRJUvGq7K7nL+vqck3jxrMQYNt2mBC4NcC6QtcjScXEYC9JklSkYh2HrM7y3uYGZ+tjhA3bYcZ2vg9kCl2PJBUTg70kSVKR2noCn2mdQJIa59cxCgH6d0JDhiXspLPQ9UhSsTHYS5IkFamnd/LllmbI2iaOvn6Y1s/NYRmrC12LJBUbg70kSVJxekdNHRUVlYUuo/DSwzC4k0308QAuw5ekPzLOF3ZJkiQVpxUn8I0p0wnjfW99CNA3CLO28KuwiPsKXY8kFSODvSRJUpE5oYzTkgam1dbmluGP5474McKO7fRNjDwC7Ch0PZJUjAz2kiRJRebRs/izJzK0r+su7m74SYDIKNYYch9sVPayLDzAzaM0iiSVPIO9JElSsSnj2mOHeYi1FG+sjww/08uftlbQ11TFr4DyURknEKhnFbBmVI4vSZIkSdI49jfAZwtdhCSNd3bFlyRJ0oEqwxWgklRwBntJkiRJkkqYwV6SJEmSpBJmsJckSZIkqYQZ7CVJkiRJKmEGe0mSJEmSSpjBXpIkSZKkEmawlyRJkiSphBnsJUmSJEkqYQZ7SZIkSZJKmMFekiRJkqQSZrCXJEmSJKmEGewlSZIkSSphBntJkiRJkkqYwV6SJEmSpBJmsJckSZIkqYQZ7CVJkiRJKmEGe0mSJEmSSpjBXpIkSZKkEmawlyRJkiSphBnsJUmSJEkqYQZ7SZIkSZJKmMFekiRJkqQSZrCXJEmSJKmEGewlSZIkSSphBntJkiRJkkqYwV6SJEmSpBJmsJckSZIkqYQZ7CVJkiRJKmEGe0mSJEmSSpjBXpIkSZKkEmawlyRJkiSphBnsJUmSJEkqYQZ7SZIkSZJKmMFekiRJkqQSZrCXJEmSJKmEGewlSZIkSSphBntJkiRJkkqYwV6SJEmSpBJmsJckSZIkqYQZ7CVJkiRJKmEGe0mSJEmSSpjBXpIkSZKkEmawlyRJkiSphBnsJUmSJEkqYQZ7SZIkSZJKmMFekiRJkqQSZrCXJEmSJKmEGewlSZIkSSphBntJkiTtj2pg4q7v07u+ACYBVQWpSJLGuVShC5AkSVJJeSuwBNgBzAJqgZOA24G7gRcKVpkkSZIkSdonzwHxVV+LClqRJEmSJEnaZ+/hj4P9GQWtSJIkSZIk7bM64EFeDvW/x95NkiRJkiSVlPfycrB/c2FLkaTxrazQBUiSJKkkPQTcAAwAjxe4Fkka1wz2kiRJOhAb1tzJHQ319DecyNZCFyNJ45nBXpIkSfstPslbO5/lv2/qZTgu48VwNPcVuiZJGq9sciJJkqT98v/+Kafdv4SrKquZl6rkmPue4DrgmELXJUnjlcFekiRJ+2P2iWdxZ3MLbY2N0NQEzZNov/273AUcUujiJGk8CoUuQJIkSaVh+bWc8dw2fjtvLhW1tZDN5m5PEujthVUvsHViBW8/4S94uLCVStL44oy9JEmS3lBcxp9sgevmHPrKUA+57+vqoH06jdkafhyf4MzCVSpJ448z9pIkSXpdcRlv61zBxZW1zJ4w4fUfu3UrZAZ5+rhD+Vw4mnvyU6EkjW8Ge0mSJO1VfJyzHnmWK2obOOSNQv1uW7dC/w6eX7+Cj77vb12WL0mjzaX4kiRJ2pujfr2Im+om7HuoB2hshNp6Zle1cjswY9SqkyQBBntJkiS9tgW3XMpjM2dRvz+hfrfGRpg5i8bbLqcTOG7Eq5Mk/YFL8SVJkvQK8QnectdifjKlnYkNDa9slLc/kiS3LH/LJtacdhwfDUdx78hWKkkCg70kSZL2EJfxtsee4dKaemZOmAAxHtzxArBlK6QHeGb+HD4XjubukahTkvQyg70kSZIAiEs4Z9FKLq+qZdaBLL9/PVu3wvBOVhw/h0+FY7hvZI8uSeObe+wlSZIEcPLvl/Kj6rqRD/WQ23NfUcPh9yzmeuDIkR9BksYvZ+wlSZI095eXsGTOYVTW1x/88vu9CQG2b4eXXmTz2z/DQuC50RlJksYXg70kSdI4Fhdz5m2Pcuuhc6ipqzvwRnn7Kkly4X7NajafcwzvDSfwwOiOKEljn0vxJUmSxqm4lD956FmumTmTmtra0Q/1kBujvh6mTGXiope4Mi7lzaM/qiSNbc7YS5IkjUNxKX/S+SyXVNYyezT21O+LrVshM8jTx83ms+EYfl+YKiSp9DljL0mSNM7Exzjzoaf4fiFDPeQa6qUqmffgcq4CTihcJZJU2gz2kiRJ48vc2zq5bUIT0woZ6ndrbISGRmbc8V1+DcwodD2SVIoM9pIkSePHyb+8hCVz5lDd0FDoUl7W1AQzZtN023dZDCwodD2SVGoM9pIkSSMkQnOEMyK07uX+1ghz8l0XQFzGOfdcw81zDqOytm70Lml3IHY31DtkBk33X8cN8QneNArDlE9hSg32mJI0BhnsJUmSRs4HNsM/AVNe685V8K5H4Ot5rom4jLctWsHlk1ppra/PT/f7/ZXNQkMDNDRyyOPPc3lcNrLd8o+Pxx82KU56C5AayeNKUjEoK3QBkiRJY0GEw9fC51tgOzAANEb4G6AKuD/A9RNgqA927nr8e4CzyM0gXxFgSYSZwMeAScBtAe446LqW8ZbHnuHS6jpmNjQU10z9a2lshK1bmbtoBd+NS/h4OG5ErnNfG4mfKKf8rPlxfkiRas2S7QVmRuKyQEgWh8V3LIgLYpbspw/n8Jt/En6ybn6c/7EUqeMjcU1n6Lwc2DECtUjSiHPGXpIkaWRsaofFFbAowHM98F2gB7h9Hbwvwin9kA6QjTB7CD4A3ALc0wmfBioWw5fIfSjw4+fhG0DbQda04K5F/KSmnpnF0ChvXzU2QlUtc+5czC+Aw0fgkH2B8FIkPpsh0wmcFQjnA79ISNqB04HyLNmybF/2vb8Kv2pYEBf8eSCcGonXZ8mWdcSOvxuBOiRpVBjsJUmSRkCAbcALwLNApgkuCPCtALdPzQX8Q1bB7kXwyQMwHagNcPMC+G8RDpkKR4bc7P0jE+G3K3Kz9wfq6Fsu5b4p7UwspVC/W2MjTGmn5fbv8gAw72CPl5CsB1YtDUvXZMgMBcKvF4fFzwB9QBogEGJSkwztYEd1luxbA+EXnaHzwRSpnwfCPGDywdYhSaPBYC9JkjQyArlzq93nV+cthV+vhl8+Dh8EhoeADKQCPPdm+Os++OQiWBbh88Dwc/DmVXDbKnh0GN55GAweSCFxKWfd8X0eOOxwqkph+f1riREmTIBDZjLxziu5Jy7htIM8ZBIIu//bJJmdma5d3+9upheBuOun6kCoAC7qiB2PROJPIrEHqDzIGiRpVLjHXpIkaWRFoOJh+PeFu4JghOuAVD/EllxmrQWG6uD9QNODsGYhXDcDfjk9F/I3R5geYNN+D76Mtz3yFJdPm059bW1kZ5eSAAAgAElEQVRxNsrbV7sb6mWztHau5IdxGReEo7n7IA4ZABKSWFZdtjvQD5P775ROk65LkWont/piM/DfO0PnLQAL4oLZwEsHMbYkjRqDvSRJ0sgIQAVQDgw1wkMR/g7o3QQVk+Ddh8Ljfbnzr5Yt8NcxFxQDcGOAzRm4Pwv/K8D6+3J7y/+KXc329kVcxp90ruDi2gYOKdWZ+lfbPXO/NXLY489xaVzKBeEYfr/fxyFuAI6dH+d/KJvO1mdjNrXr9mXAuxfEBX+TJbsjIcnsespPIvG8jtixIBIbIvEZ4PKRe2WSNHK8jqckSdLICBEOA4YCvBjhCHI/ryO3x34msBYoD/BkhGOAQ4AY4DGgO8IE4HigHugK8Oi+Dr78Ws7YAtc1TmRqQ8PIvrADkUpBatfC92wW0pnXf/y+2LoVtm9h9WnncS6weH+e+1beWrs5bj4B2BaJZRVUrH04PLweSDpixzGB0BqJPYEwPMjgqmVh2bYFccFxwLRIHBgOw51LWbrl4F+FJI08g70kSVLpm33zJTw9Zw7l9fUHf7AQXp7t3/P7fVVeDg8sgu9dCzt3wqfOg3NOh+Hhg69t+3Z4aRU97/gMHcCqgz+iJJU+l+JLkiSVsH//FKcdegJ3zptH+UjsqU+nYTgNVZWQJNC3E6orczPwrxZjLvjvKQmw8kX4rx/A//wraGyAj/8VNE+A+UdB5iBn7hsbIZWi+fbv8fiPr+RtV93LIwd3REkqfa/xFi1JkqRSEJfy1nQt106bzoT6+oMP9UkCz70I3/h3WNgBGzbBp/8GzjwZNm+Fnq2wZRts2Qr9O3MfAnRtfPn2nq0wlIanV8LOAXjXWVBd9fIHAHNmQPYg9/3HCJWVUFFJ1XHHcc53v8Hj/3ixM/eSxjdn7CVJkkpQXM7bF6/gO82TaNvVOf6gZbMwZya862x4cBHccDv8n69CXQ38/pGXx4gRJjXD5EnwzPMvz8LHCNOnQm8ftLXkbgsBprRCegSW4e+2u6FejMx64nkujcv5fDjyoLrlS1JJM9hLkjS2VANnAKcAs4A15FboHQGMQPsyFYPz30F4ZDlH1dQxe6S736dScOZC+N8XQX0tzD8y1/juw+96ZXOmbMwF/WPmvfL2kMCvfgfrul++LZ1hVDo7NTbCli3Mu+oWLgKeGfkRNI4Mkmty+RKwCLgXGCpoRdJ+MNhLkjR2fAD4MvAicB/wILmO7AFoIHd9dZW+eOR0qtpb+PK6Hg6fMOGP97kfjCSBNethRx90LoP+gdxy+0uvhsGh3FiZTC7QzzsUfnUnDAzmbh9OwxknQlk5rO3KHS+bhRdX55bhj6QQcsfu74f5c3kCuJTcNeltDq0DEYAmYAbw58C/AN8Cri1kUdK+8o1PkqTSVw78b+Bk4HPA0xjix4OWl+7iu11bObetbWTCfQiwrRcuvgrOOxfufhA29cBXPp8L9a947K7Hv3rPfCqB7k3wzf+EL34CGmrhy/8A//wVOGIOZEZgy8DuDxfWr4fDpvDjiafyRcBL0WmkJMA04CJgNfAVoK+gFUlvwGAvSVLpuwD4CPA+YHuBa1F+TVh7F99f3cMH29sP/mBJAsuegSdXwHvOgdpq+OZ/wUfeC4fNfGWI3/NyeHuKEcrLcrP9P78VhobhfW+D004cmcvd7Z6pX7MG5k3n6uaFXAjsOPgjS3+kFrgMuAO4usC1SK/LYC9JUmmrAu4BzgeeK3AtKoym1Xdyedd2PtTamtsjfzB77pMk95XJ7Arp5bnv97c5XyqVO04gN0t/sJe5g1fO1B8+laubT+FLwLaDP7K0V6eR+/D0y/i7piKWFLoASZJ0UN5LrmmYoX782jL9bD45qY5bu7tzwfdgluVns7nL2O3+cGB4+MA67mcyuecODY98qJ/dxnXNp3AhBi2NvofJNSKtKXQh0usx2EuSVNrOBX5U6CJUcL2zzuHT01v4RXc3ZMfY9Q/2DPVzpnJd62l8AZffKz/SwJPkGjNKRctgL0lSaesAHip0ESoK66eczoWtDfyqe0OhSxk5u/fUd3XBjFaun5Rbft9T6Lo0rhwDVBa6COn1GOwlSSpt03A5sl62fuZbOK9tAj9buza3nH4kL4WXb7tn6tesgcOmcOWUM/hLYFOh69K4U4W9yVTkDPaSJJW28kIXoKLTO/0sLpjezM+7unKz3aUY7nfP1K9bB/OmcU3zKXwZ6C90XZJUjAz2kiRJY8+W9rP4VFsjN3V1HXxDvXzbc0/93Haubj6FL+ClHJVf7wb+ctf3Q+R+/04FPg+MwMUlpZFlsJckSRqbth1yFp9pn8hNI9EtP1/2DPUzW/mpoV4FMgX4IXAtcCjwX8AV5C59t7NwZUmvrQTe3iVJ0usYILf/U9qbqWvu4ZJ1Pby3ra24w/2ey+9nT+EnrafyRdxTr8I4BPgFcPwet+0Evgp8uyAVSa/DGXtJkqSxbd20M/nk1EZuXL/+5evTF5vdM/Vr18JhU7mm9VQ+i6FehfMS8J3XuM1Qr6JksJckSRr7Nk87i09ObeSGdetyNxTTzP3umfq1a2FuO9dMPIUL8WoPKrzfAnfu8fNXClWI9EYM9pIkSePD1uln86n2Xd3yi2XP/e6Z+nXrYF47V+3aU99b6LokYBXwKyCSm62/ubDlSHtnsJckSRo/tk4/i0+1NnBLMTTU27NR3oxWftp8KhdiozwVlx8DNwFfLHQh0usx2EuSVLom/cff0AdMLXQhKinbZpzNZ6e38Ivu7sJd537PUD9nKtdNOYMLgb78VyK9rv4HriX+6N/YUehCpNdjsJckqTRNWXIjN5+0gOa7r+JeYGahC1JJWTfldD4/uZFfdnVBzOZ38N176tevh1mT+cmkU/gisDm/VUhvqGHjA1yahvfXVnEncGShC5L2pgh2VkmSpP0xeBNzn4arsylObG2Fnh7YvoUXTp3Lh0IHnYWuTyWlYe1dfH91Dx+aOhWSZPS75u/Z/X5eO1ftWn7vTL2KzeR193Dx6s18YOpUGBiAZ55m+F0LeXuY/4qGelJRcMZekqQSEh9h3uoaLs8knDhxYm7Ws7ER6iYwa9lafhCf4KRC16iSsr39LC5ob8o11BvtZfl7Xqd+3nSubj6VL2GoV/Fp7r6fi1Zv5gNtbbnf25oaOHQO5Q88zY/iMt5Z6AKlVzPYS5JUOmY8vZnvbx/gTZMmvTKANTdDNsVxy1ZxeVzMgsKVqBK0ZfrZfHJyQ25Z/mg11Nuz+/3cdq5pXsgXsFGeik99971c8mI3H2prg1Qqt4olm4W6Omhspm3RCi6OT/KuQhcq7clgL0lSaWhdfAM/Hchw6qtD/W7NTblw/+Az/ASYnfcKVcq2z3gLn9ndUG+kw/2ejfJmT+Enzbk99V7STsVmwoZ7ueyFDfzplCkvh/o9NTRAdR0zHlzG5fEJzilMmdIfM9hLklT8Wjp/xo2xnJP2FuoBCLmZ+/pGDr3rSn4DtOezSJW87imn84XJE7hlw65u+SNh9/L7ri6YNZmftp7KF4FtI3N0acTUbbifi1d2c94b9ZtoaIDGZqbe+hC3AMfltUppLwz2kiQVt0M7b+TWUMWpra379oTmZmhpY/Y9V3M/cMyoVqexZt2Ms/nzqY38fN36g2+kt2ejvDlTuHry6Xwa2DQilUojp2Xd77nihW4+2t6e+719o9/9hgY47DAqb7qYx4HT81Kl9Drsii9JUpGKnRyxYiOX9w1xekvL/j03hFy3/OEBlnccyifCsTwyOlVqjGpcexffW7OFD06ZcmDd8nfP1K9ZA/OmcU3zKe6pV1Fq3fAAF73QxYf33FO/L5IEenth3Vq2nHU854djuG10S5X2zhl7SZKK0+HPbeKyviFOnzRp/58cIzQ1QVklRz75EpfFJXbL137Z2n4Wn57WzA0H0lBvzz3186ZxpaFeRap2zd1ceiChHl5uqNc2haZHV3BZXM67R69U6fUZ7CVJKj6TOm/g2t5BznjdPfX7oKkJMgnzF63kCuDokSpQ48LW9jfzmSlN/HJ/GurtGeoPaeH65lO4EEO9is+EDfdx2boe3n8goX63GKG+Hmrrmf7oU1wcn+TtI1+q9MYM9pIkFZfWzp9xU1JBR0vLwXcmD7sa6lVUc8Q9V3ELNtTT/umZ/mY+1z6Rm7q73/g693uG+jlTuW7KGVwI9OetWmnfNGy8n0tWdnF+21663+/3ARugroHpdy3ix8BpI1KltB8M9pIkFY9pj9/ATVRy6qT93FP/RpqbYeJkZtx9Fb8H5ozs0TXGrWt/Exe0NXJTV9feu+Xv3lO/fj0cOoVrJ+WW39soT8WmccP9XLayi/Pa2w+sf8TeNDTA1HaabrqY+4D5I3NUad/YPE+SpCIQH2De8h5+OAQLW1pG7kRzT0mSa6i3YxvPLTyC88KxPDbyo2gMa1h7Fz9Y3cMH21+17mPP7vfzpnH1ruX3OwpSpbR3k7vu4zurNhx4U8g3kiTQ1wfPPcfAOxby3nAMvxnZEaTX5oy9JEkFFh9i3so+LhuMLJw4cXRCPeRmUxsboaaeOctW8b24jJNHZySNUdvbz+Iz05v5WdeuS+GF8EeN8q5uPoUvYahX8WncHerb2kYn1EPufbamBmbOpOrB5VwRn7ShnvLDGXtJkgpr+pO38NPByMKDbZS3r2KELVsgpHnimCl8IpxI5+iPqjGk/sU7+fGGbby7rS33+7Rr+f2PW07lsxjqVXwaNtzPZS9085GDaZS3v7Zvh507WLXgcL4QjuZXoz+ixjODvSRJhdP6+A3cFCtyM/X5CPV72rIFtvXw4hnncybwUn5HV4lr67qPS17s5n3ZLBw+nesmLeRCYEuhC5NeZcKuRnnnTZ06ejP1e7N9O2zZTPdpR3J+OI7f5W9kjTcGe0mSCmNS589yjfJaW/N7ormnrVthYxcrz/5LzgTWFqYKlaipz97BRWVlDMx6C/8N2FjogqRXqd1wH5et7OL8kW6Ut69CgN5eePZZMu/9PMcCy/NbgcYLg70kSfl32OIbuJYKFoxWo7x9lSS5mftNG1h9+X/x3h8/yuOFq0aSRkzrmru5dF0P728bpUZ5+ypJoL8fnlwOsY+z3v/X3F2YSjSWGewlScqj+ChHPLeFy3oHOaNlhC9pd6BCyHXLzw6x7LjZfCocwyOFrkmSDkLLhgf4zgtdfDife+pfT5LkluVv6GLTm47l4+FYbi1sRRpr7IovSVL+zFnRw+W9g5wxaVKhS3lZjNDUBKGco59cxWVxGScWuiZJOkB1637PJcUU6iHXLb++HlomM+mx57gkLrVbvkaWwV6SNKZE+GKEy4Gy17ivNsJHIswvQGktnTdybd8Qp+er+/3+amqCTML8R5/iauCI/Xnux/l41VzmzvwwH64YpfIklYgIkyNcEuG8vdx/VIQLIqRGeOgJG+7nstWbcpe0K5ZQv1uMuXBfU8chjzzNJXEpb9vPQ4RDOXTOQhZWj0qBKmkGe0nSWFK5FL4I/CuQfq3774KFwCH5LYvWzp/xi1DOCS0txRnqIVdXczNU1TH3riu5FWjf1+cuiUtaq2P1R67n+j/6QEXSuHMMMB32eom3qb+GNzOy24LrN9zLJSvX89EpU4ov1O+poQHqG5n220e5Hjh5P54a62P9hQ/xkMFef8RgL0kaMyL8Wy/MXQffARojfG0RLH8Yno3wDmCoPBf4h4C5z8GdS+CpDXAjMAegB77ZCctXwJ0R3jQCZc14/EZuppJTi2VP/RtpboaWNmbedSX3AfP24SlJIPxt2Bn+8fh4/N+eEE+4uCN2fKsjdjx6fDz+Mx2x4z8v4IIpAPMz829b+OuFpwGVx8fjv9kRO57oiB2PHMqhR43qi5KUL3UPwLWPwJnkZuwPXQm3dcKKTfBzYCowXA7DAbIRPrsIli+CpyN8FUgizHwU7lgMT/XARREa32DM5u77+N7zGzivvT33IWWxhvrdGhrgkJnU33wJD8K+bX86Ph7/Ffr478fH4/+1I3b8zwVxwX8eH49/dkFccG5H7Ljq3S+8ex5AR+y48qR40gcA5sf5n+uIHYuPzxz/xHHxuLeP4ktSgRnsJUljRoCv18ET7fAnEaYBzQtg/snwtkfg8gA7dz10MMJXD4VrjoMjWuBfIsyIcMFKmNoBRx4GX94OXwImH2g9cRHzlt/KtbGckwvd/X5/xAiNjTCplZmPXM8v4tI3POnMBsK3Q3W4dnFY/HeR2B13xpM7Q+eJgfBkJFb00587djqWrfiTFZmO2PGxQJjQGTqP7Qyd750QJ/x09F+ZpDzYcSp84iS4KsBlEc6fDVd0wOET4bEIX3gGhnZl78qH4XML4O0Lch8i7oiQ3AP/eQJccTwc0QQZ4MOvM97k7vu57MUN/Onu69SXghihrg7mziX8+gfcGZe98bL8Wcz6VlKb3LM4LP5SIDyb7kmftDgsPiZL9v5IrBp4eGD3CojU4IrBbEfsODkheXtn6DxlcWrx/CSdfA+bp49ZJfKrL0nSPqnM7tpbH3LXCr4mwrsjdFRAC5Dd9bhy4OY74cwIfwWUB/gdsOAESEf4KHD2U1AeYe6BFBJ/y9yVPVw2kOGUiRNH4JXlWYzQ2ASVtcx9chWXx6Wvv1w0ECrJ/b1WZcmWxeF42667yoA/fKQRkpDZxraqSJwFNHXEjj/riB3nBEIGOHK0Xo+kvKoGKgAC/F9gS4QPkJutr52Xe4sJQLoDftcNfx3hM8AtAdLludn+5gh/BlT8Fk7fyzgN6+7h4he7+VBbW2EvaXcgslmorYVp06l7aDnfj0++fkO9F3mxgtx7anWWbFmsjvcC6UAoB2KSTSJAJGYHHxtMInEOMLEjdrynI3Z8IAnJAPu39F8lxGAvSRpTwq4QGXMnL18hF+jrd929+5SvPMAvzoZvA2EAPrnrpHOY3MloE5A9Ga4DnjuAMqYu7eeq7QO8qVgb5e2r3Q31ljzP9/7tUxy/j08LoSHsXh0RgdhH3+6fKjJkCIQIVAFNkdgE/DOwcYTLl1RgEb5ObltTLbnAn93j7nQFfK0V7gamD8K/RSjb9ZZZS+79+4lzcu/FrzZhw71cunozHyjGRnn7andDvYZG2h97hu/EJ3nn3h4bXp5sj0BIqpPBPe6Lg1/7w4/lDOUetyv0NwJTYir+f8DqUXgZKgIGe0nSWHUssCPAZV+DtZlds0e7ZCP8P8D6AN+qgvvJnXgueQp6AnwnwHeBwQC9+zlu6+M38LNMwkmlHurh5YZ6SQVHL3gzN/H6DfUScstm9zxxH0r3pCvXsz4BSMqTY4G+QFgFPNsZOi9dHBZ/OxInYrCXxpIIJJvhLcAPAlxN7n04AbK7PoSdEOEfAvw8wN/3wGFAUzYX9JcFuAhYCmx41bEnbLiPS1d2c16xN8rbVw0NUFvHIfcu4Yqnf85Zr/PQAMRIzOwO+pGYSW9KZ7e+uLUm94Awv2pBVSYQXgBe6Ayd3+sMnd8G6oC1o/1aVBgGe0nSWJL052Z5AB58GDo6Yfk/Q3saOlfATcO54JkATz0BNz8Oz6yC9wFXBvhBObAEnnocHgUmsX/BfvLiG7gxW84pxdD9PoSXvw5WczNMamX6nT/kHl7jqgKB0A1M6YgdP4iZOCsOxTKAztD5ZHlzec9QeuiWjtjxA4ZZPPfnc+syZK6LxIoFccGTHbHj6dgftx98lZKKRDm7Zucnwk2L4faVcAfwyP3wltXwkaHckvL+9VD1GDy3CJ6eArcF2HIafO0++MoT8OzD8A/Atj2OXbfhfi5e2cVH2tsLv/x+JN9nGyZASystT3dxJ6/RuHRRWDQUid0dsePngXACkIrEZHFYvKlsUtmDyc7k6gVxwTWxP3ZlZ2erO0Pnw5H4WEe644mO2PFclmzDwVepYlXi8wiSJBWHrxzD3I9+k2tiWe6SdoWePQoBdvRBOgNJgLragz/xTBLo6YEtm1h1xjw+EE6gc2SqlaT/n737Do+ruBo4/Ju7TV3usmS5YtwkF7nRa+i9JISegKlpdD5qQksCoZveQgkkIQ2SELoBY9xtybIsueEiy5Is2ep923x/zK4ljEGStavdlc/7PBublXT3bKy5e8+dM2e6JK30C54rrebsoemRT+oty5xnPR5QFiTGg93es5gsC1qaoagI/+mHcbyaymehi1j0ZZLYCyGEED2kVzJxUzXP17dy5OBB9PjT1WYzTZW0Nsm4ZbX/d1dYFlTuglt/D+NGwcat8IvLICcErekUUF0D2k3BlAO4UmWztOdHFUKITg2sWMjzwUZ5PS2/t1lmTda+nmeVgtY2uPm3MHQgVNXCKcfCMYeA3dahY+g+sCyor4ddO6k8fDKXq2z+14PDif2ElOILIYQQPTN6/U5eCjbK62lS7/PDwuXg8ZqLu13VsCQX3B5wOMBhb3/YLHMB2fG54OOdD+HQ6XD7L+Dqi+CFt8wxezprrzEN9XAwec0WXtCrmNmzIwohRKeSyxfwXKiSer8fVhVBXUP7rPvSPPPfzj3Pszbz2PMc63TAF4sh3gV3/BJ+/hP4z6cmwe/pedbvNw31BgxkyIoNPNtZt3whILAlkBBCCCH2yeC8f/F2s4dZoWqU57DD3Ffh+jlwxGzYvA0WLIeySqiqbv8+jweOORS+LoayHe17N7s9cOoP4KvlcO2l5nijR4DbbS4WQ6V/f6ipYeqS9fwFOAXYGLqjCyHEbqmVC3huy05+lB6i8nu7HRYsg3Wb4KKzoaYO/vUBHDzd/N3rC+zF54UZU6C5BTZuCbSix9wkPfIgWJ4Ph88ClwuGDIRhaeYcbNrb9SxGrU1DPWDE4jW8oFdzmZrCxz07qujLJLEXQggh9s3AVf/i39rJrMGDQndQy4Lzz4D/fGIuMjduhaMPgnEHQFtb+/dpbdbNpw0yF6Ednx/QH6rqICnBlJomxJtHKO3ulm8xdv6f+OioSzgC6bYshAit+F2LeX5jaWgb5VkKcrLhxgdMYr9xCxyUA8cfYZL4II2Zkff7YdKBHZ7XkJpiEvzUFNB+cDohOYkeJ/R7SkkBpcj4eDnvYHZvWRnaVxB9hST2QgjRuxQwCTgDswVQFrAe8AJHYTq2ixjwu+tprm+j/5jA5m+hauDk88Hpx8MfnoNVhaZc9LCZpimTy9H+fRpThm/foyRVY0pEnXZobg2sA22FpubQxLenAQOgqYnRT93F6l8+sHtHgmjXjLkJsQr4APgQqP7enxAi+riAk4HTgOnAWOAp4Fb6yGfJDZfStnojSWMOCG2jPJ/PLFUaPQzWboQPv4TzToWEOHNODdKYJU8aiHN98/k4p3k0NJrzrNtjSvrDITUV3Gkk/PVRPj7/JhKQPmmh5AVqgDXAZ8B/MddlMbeBoiT2QgjRew4ArsZcgH0O3IjZnzfmPjwE3PEE/dd/wNsVFRw/ZEjojqu1uVg8aDo8+yc4fCZkDoUPvoAlK8EKXHS2tcEFZ0HBOlj3tVkDCtDSCldcAIfNgk3FcNgMKCk3F7JWGC4Fd+0C5WXNLx/gOKAi9K8QNoOA2cB5wE+BV4G/0UcSItGnWcCJwFWY39c/A3cD5YGv3xmhuELu8Tdw/e5Gns3dwOWZmaHbr15jepYcexg88wYM6m9m5JethvfntX8ouz1w8tFQ3wgr8tufb3PDuafAyOGQvxbOOhGqa8251h6G7Kq2Bmqq2XX+TfwAWB36V9jvWUAOcDrm5thy4HlgWySD6i652yOEEL1jGPAs5i7wvUCY7uuLXjZg7fv8s8nD0UOGhG5GyWaDlQVw+uXw16fhqIMBbbZT6sjv/479kzVs2AKPvQxnngDL8mDmFFNmGoo+AGDeZ3U1+NysnnE2ZwFbQnPkiJiMGZ//AR6OcCxCdOYnwBzgQeD9CMfSG5IbV/BYwVauyMgIXXJvWbB9Bxx0Bjx8B1x6rmleau3tPMu3z79oqKyCmx6A80+H4u2QlARnnwjxcaGrLqirg5ZGNs88gDlqGl+E5qjie/TDXKcNB64ghqq5JLEXQoje8TBgA25BZgT7muFbPuWPVU0cN2RIaBJnpczM+2U3wUN3wKjMfWt8t36T6fLscsLEA82fIZnt0lBVBfF2lo4fyFVqVp+YQRoHPAY8iqmoESIaTcbMzj/H/vV7mlC3jGeKtvHT9PSe7xW/+6DxMHAqfPQnmDzeJPbdYbeZm6i7qk0FwNiRZs19KBqVKgW1tdDWwtfTD+BaNZlPe35U0UUO4GmgDJPkxwRJ7IUQIvwGA18AUzFruUQfoz9hzFbFC6FK7uPj4J8fwNdb4brL9/0C1max+5O+O/szfx+lTPm9zUdu9nAuVznk9/yoUeMszJrlXwFtnXyvEL3NBvwf0Iq5CbW/Sa1dzty1xVwaipl7l9NURj3wFLz9zL4fy7Laz/mhOs9alpmp31VJ+RHZXKym8lnPjyq6yQnkA4cRI7P2so+9EEKE30XAv5Ckvs9Sx7N59HFcnmBn/s6dPTuWww53PQx//Jvpjt+TmwQ+v1lb7/OF7mKzqgpaGymafAYX9rGkHszaVQ+mwaUQ0SYdSAOWRDqQCKnrN4tfjR/OG2Vl5ry2r+dHux3eegdO/gn84Y6e9R/xh/g8qxQ0NsLmzTQdeRFnSlIfMW7gPUwflpggM/ZCCBF+nwI3YBrlib5twLr3+GuDl+OHDt33gzjs5uLO6wvt3vM9VVMDjTXkH3ohJwE7Ih1PGCQAt2ES/H9EOBYh9jQduBYzax8TM4hhEt+cy5N5X3NlTxrq2e2mqsnjja7zbH09bN1C86lXk01s9y7pCw4DbgLOiXQgXSEz9kIIEX7jgMJIByF6RfWE07gg2cmnlZXmYnNfZpQ8XtONOVouNoNr6pvrWXfohZxI30zqwWyD1wIMiHQgQuxFImZHq/05qQdoSZjOTTljeWX79n2fufd6TXf7aDnPgim/r6+hJHsoJyBJfTRYi9lGMiZIYi+EEOE3APee9ocAACAASURBVIiiSwcRZlUTTuGiJAdfVFa2d66PVcGk3qlYfvKP+SGxtaXdvvADcZEOQoi9iEO2qg5qSJjO9VPH8HJPy/KjRV0duFv4+uAsLht5JgsjHY8AoBboH+kgukoSeyGECD851+5/KmefzOWDk/k4mNzHqupqiLOxbOIwrqrZPypPFDJmRXTSyO9mR41JM7lu3DDejOXkXilTft9UT3HOWK5V2cyLdEziG2JmzMVMoEIIIUQsqYMtI4/lmkRHzxvqRYJlmaS+rYmiCclcoaayKtIxCbGfi+FbhGHTPPAQfhVM7mOtQsqyTKO8km00zB7LJSpbtrQT+04SeyGEECJ8tkw8hR8m2vhkx47Y6Vgb3NKuqZbVB53HCepwafwoRBSIlVNIb6sZeAhXTx7FSyUl4PPGRnKvlCm/3/Q1jSddwUyVw4JIxyRimyT2QgghRHjtmnAqFyba+aSiMjTbIYVb1S5obqAw0CivNNLxCCFEJ5qTZnJjzlhe2V4aG2X5tbWws4KKU6/mKGBDpOMRsU8SeyGEECL8dk06jfMTbMzvSbf8cNPazNTjYdUhP+Ys+m73eyFE39OYMJ0bcsbwUrSvua+rg9YmNh05mQuA3EjHI/oGSeyFEEKI3lE98VQuHZTEJ9HaUK+qCuLtLJ0yip8CX0c6HiGE6KaGhJlcN3E4b5SVmS3toim5D5bftzaxacaBXKOm8nmkYxJ9hyT2QgghRO/ZNtLNNf0TmBdNDfWUMkm9zUfe+MFcraaRH+mYhBDfogMP8f1a+h3EdRNH8kZ5efTM3FuW6X6/q5LKGQdypZosjfJiQEyNN0nshRAi/KJwblZEijqZzQccz08SbHxeEQU7wluWSepbGymccibnqRmS1Is+KwrSux6JtvijLZ6OavvN4peTRvBaaRSsuVcKGhpgy2Yaj76Ek9Vkmaknun9/gixi6BouFv4PFUKImKWLOPXDhbx50uFcrybyeqTjEVFl4Lr3+Eujj+PT0iIXRHW16X4faJQna+rhNqAVeCLSgYgQytJTaftoFa5UYmwSrgOFyTN8kQ4EUNBcCVvOjPZcIqF5BU/mbeaKzEyw2SLTwLS+HkpKqD9pDrOQRnmQpQ/F/fFCnClE/XhUdtDeSEfRCQXN1a32SIchhBB9lV7D2QtX88LwEfT7ZAmv6ULiVBYvEx1XZSLyqiacxgXr3uftykp+MHiwmT3vrYtOrdv3qT/0Qk5BknrRl23CxtR0yDwAdMxMwEUvy4LCmCjuaU6YyY3NK1GrNjNn2LDeT+7r6qCpnuITp3MJktQbJdjJGgYZI2Njq5hoZ1mwOi9OEnshhAgDvYazl6/jqQEDGZyaCi4XfFXAI7oQu8riBSDab/+K3lE14RQu3vgxb1VWcuyQIb1TLqq1Kb+Ps7Fs6mDmIFvaib7OQqM1aF90dq6MSTGTkDUkzOC6xpVQsIU5Gelgs/dOPllXB+4Wvp49kWtVtuxT34FG+81YlBttoaH9ssZeCCFCTa/mlIWreTEplWHJyeZzKz4e0tJI+qqAB3UhcyIdo4gqO3QhVw5O5uPKXtrnvroaXBbLJ2RwtTqGNeF/RSGEiKimpBlcP34EfyrrhYZ6Spny+4ZaSnLGco3KlkZ5IvwksRdCiNCa8b9F/HdQGoNSUtqf1BoSEmDoUJI+XsrzuoBLIheiiDbjbmDzyGO5Ot7Ggp07w3fBaVlQUwMtDay/+zIuU1NZFZ5XEkKIqNM4YDbXjc3grfIyc9M9HOday4KmJti6mZZkDxeobOaF/lWE+DYpxRdCiBBZ8SrHl7fx8YSJZoZ+z2pPrc3zBx4I83J5QxfiCqy5FwJga9ZpnLn2f/y1rIwTMjJCO3uvFOzaBU215Aca5UVBT34hhOhVNYMPZU7TShrzNnF15jCwh7AsP7hP/eZNNJ12DZOBLaE5shCdkxl7IYQIAV3EmfV2/j5u3N6T+t3fp8HphDFj4NPlvKTXMAc5F4t2NRNP5aJkJx9XVITuYlNrk9Q3N1B06IWchCT1Qoj9V1viDG6ZPpZXSktDO3NfWwu7Kik/7RqORZJ60cvkYlIIIXpIF3LOsiKeTU8nNTGx875MweR+9GiYv4qn9VquQSqoRLtdE0/l/DiLBcE19z256Aw2yrP5yD3kx5yDdL/vTFvgIYTouxoSpnPD1DG8GKp97uvqoK2Fr4+YysXAspBEKUQ3yIWkEEL0gF7NGUuLeDqlH+lJSV2fYdUa4uIgYxhxi1bzoC4ElcXzgLSHFQA1WadxafFnvFBZyQk96ZZfVQXxdpaOz+BqYH1Io+yO6fpSdnJClO8H4aVt+VRw+HBNOxiwRTqg7+REM5D3yVV/iXQoQsSohqSZXFe1mIQNpVycnr5vZflKmZn6lkY2zxzHtSqbz8ITrhDfTxJ7IYTYd0d/upI/Zw4nMSmp+z8cbKg3eAjJX+TyuC6kVWXxx9CHKWLU1rh1XJs6lpd27jRb4XWHUiap1x7yxw/lKjWF1eEJs4uqOJ3xW3+IwxXRMDo3PPBn+YyIhtEZdyt8PVoBkthHOy+wXoNjj+cPUNCmwVIQ18kxPMAuDWmqvd62QZsd51J6YY/Mvqt14CH8snoZev02LsnI6N4+95Zlut9XlFN17AwuV5OZH95wRZd4gDoNdYATSAWSAmPHA2zU5nkw2XB/zDjyAs0aEpV53tfhOADJQL/A15qAYv3NbDoByFBQrc3PDg68pj9wXIeCMH4ESmIvhBD75pD3XuDzkaNMcr6va6GDyf3wETg/Xc4ruhBLGuqJoLSfsRm4eN37/Kmigh+kpXXt54JJfVMdaw69gLOJhrWebhSueHB2lsGIrlHgjnQMolNeYIQN/d9k2twaFSi9cTpg7AW1XHxRPL5GPw/83W0Sfz+gMFfowXzdA+fNtvPAZfGMu6YR7BrqNY9cF8+gRMVPH2yW5L5nagfM5uf1y/Gs2crlw4Z1LblXChrqYfMmGk+9mmOAgl6JVnw/NxyVbePW8+I4OsvOrgbNvxe5efBfbZRVaqZOsbHqvWSaWjSWpWho0fxzsYefPdbM+QfZ+MExLv49r433cn2MHKr4w20JHJftQFnw1Vovj/+5hc/zfTx5iZNfXZZIm8cMVaVgxy4fI65tZOnceNwuG2fe30R1o2b4IMWNc+LZutHDk/O8YUvuZY29EEJ0k17DaR+8xBfjx0NiYs8bnAXL8g84AOat4CVdwKWhiVT0EeUTTuHHSTY+qehiy7tAUl9w6AWcQDQk9UE6MMOotTx68jD/Z0byX1J0wzAnrN3mI85Vg2uaeahJNWxqgg8XuPlwqQcsOGeCxQ1H2rh8hs0k+MF/Yjv8J9/Lp2u8PHOFC+o0h0yzce4hTn762xZIlqQ+BBpSZvGrKWN4Zfv2rq25r6uDkhJqTr2ag5GkPjq44awcG09cncCSAi+Jx9Qx8oZGxqRZPHdFPCQq4mywerOPpIQaEnJqSDupjiMnWZxzvAOvNzDoNOCF/96fxM5KPwPPqmfASXVs2OzlV+fFQz24nLA0303ckBpcU2twTq1hxOn1UOmn1Q3jMi0uO9IBzRpNe/IfTpLYCyFEN+g1nLO4kJdHjcb5fd3vu33cjt3yV/CqLpKGeuIbqiacxgWJdj7/voZ6wUZ5nlYKDr2A04DyXo9UCPENGtpn3/sHHhlgc8CZx7k47VAHP5lt4+xT4zjucBenHOfit2c5oSWQZChobYW8FW7GDrdx4iF27r4gjgf+3AJxuv3YoqeakmZwQ85YXu6soV5dHTTVs+W4HM4CCns1SvHd3HD5sQ7WfO3l/n+2wRCgys8jf2vDirf4WY5Fmy8wZJzAAMCnKa/WDEhQu++benzwo+MceNzwi9tbIElDvObmh1o5++Ym6NfhcziT9nHdT4HNVOS8/UErZx/jgkQLnz9wHgjz/VhJ7IUQoot0AWctX8fcfgNI606jvC4fP5DcjxqNtWg1D+tCriaam3eJ3lY18VQu6RfPvMrKb99UCib1LotlM0ZwEbAtIlEKIb6hzAsjh9hYuCKJpU8nsuLZRJ6+Ng6fBp9X0+KF849zsn2rl1MPb+Tlf7dy+EwHJFntiYADXlrpo3Czl9/Piae5RfPeYg+4JKsPsYaE6VyXNZpXy8rA6/12ch/sfj9rPFepaXwZmTDFt2jABSkpFrYWH7RgMl0XfLHZT3oijByoqPbC6HSLz+YnsvDJBD6em4DPDy8v8mAPXHF5fDDrABufF3phKJCgePLyOD57LoFPH46HeAuvD8aNdrDo9USWPpPI0qcTefXnLqgCm03hrvOzZLWbv90QR3lD71RYSWIvhBBdoFdz0oLVvJKUyrDk5DC+job4eBicRtJXq3lIFzEnfK8mYlDpGDdXDUrikz1n7qurwQkrJmRwlZopZaFCRIs4C+qb/Mxf6mbhSg9frfRQsL59ewhlV6QmKc47wcWyomT+cG0CSQkW6WmqfZ8UBXjgw2UeWj2wfJWHikbkSj48mlNncv3EkbxRXt4+cx9slFdXTen0sVytJvNppAMVe/CC0hpldbgbowGbSda9PnMvrLZR8+UyD0vW+sjMtPP3D1phh3/3zymg1a2JcwR+3qdZW+zjy1U+DhznhGSFpaC61seXKzwsXOlhUa6H/HVeSDC/L06n4ubn2hg8xMYPptnx+8Of3EuZpxBCdG7mfxfywbhxEI6Z+j0FG+oNTSfxk6W8oNfQprJ5PbyvKmKFOpXNwJVr/8frO3dy1NChZqa+pYG1087nUmBtpGMUQrQbYEFtk+aO/3PDjEDCYcM0vFOgAwnHJ1+08uZnXhKd0NAK5bX6mzVbNlhRA+U1mpYW6bEQZvX9ZnFd9RLU+u1ckjkMmlth6xaarrqaH5bCkkgHKPagAC8U7/CjkmwwUJmO9l7Njw+3sbVes6bUT4pdUduouecpDwyGkZk2Ro5zwKftN9ucdnh5uZelv0niF/XNEA/Pf+aFfM2PTnaBZTazqKrxc9vzHkgOLInZs+u9R/PvT9t4+KJ4PlntCXtnFEnshRDie+hcTnxvGR9OnGhm0kO1pr7T1w3M3I8dC/NW8ppeg6WyebWHh1WYvssepPNWrCueeCpnr/+At7/+muOditWHXMCJwI5IByaE+KY2ICle8dOf20lONIm93YI3C83CW5tfs2qjF3+SnRGDfQwcYjF6pJ1FL7d+q3t2vAW2QFIhwq52wMFc1ZJH66I1XNnSRPNp1zCZaGpIKr4pES59083SXyfw8pw4VixzY09SnHGUi+3FXv6yxM9hh9ix2TDr6wcrfvhEK+WvpvD3L9xov8aywG6HbZ96WVDg4aM/JvP3D1qx+TSjrnLgcigo8YOykZJkMed0Gwk2M0vf4tG8tNK/u8KDOMULizzMnubg9IOczN3g7eQN9Iwk9kII8R10AWfNz+ePBx7Yu0n97tfv0FDvk+X8URdiD+xz79uX403VU/sBx+Wr/P8BzSENVkRCzfiTuUSv5241noeQpH7vNNCK2UO4I5cyew57ME2UOkuU2oI/F/jTh9luzoWUQ4vvpqCqXuNv9fPrnyXsftrpUCx9tBm/No22fvWcm0evcXH1efE0tWrufrvt2x1WFLjdmpJSL1V1Wjqw9I7W+Bxu0evYsSyf95GkPrpZQLPmoPubeeECF9ddGEd9E/zlCzdPfOiBBGhq8rNpqymZxwIa/Lz2fgtnzLKzeIWH0jIf9Y0aMhTn3dvMb+e4+OU5Lmw2WLLex9gbG8Cl2bbDT5wD7pwTD5jEvqZBk9fUyuZiH+W7/OCElgZYvriNfk6ortNh/byQ+31CCLEXupBzlq3lqZR+ZCQnh7/8/vuoQEfk0lJajpzKLSqLFzC7I3dLjs65XKF+odG/V6hGjW5RqJka/Tkw5LfqtwtP4ZT66Xr6hYMYtPBj9XFxjs45QqFmA75clfsK0BDq9yf2E+n6H+TsOBdnPL1WMKIBC+493sHROfbd49iyYPM2H7/72MOp0+zMW+5lde33dBf3wL2nOChr1LywyAteOOtAiylZNv6x2EvRrvBerH2LUtDaDKvS36JcXdyLrxy7EnQO2fm5ZI7u/bu0PqB8j98vPzBY8fur42mq9vHA227z+9oSSNiT1d6n3/yY27JxRHZ6zrLB2tWw9nDJJUT3pegjmFTwJekjQYdhPPqBJg2NmHGSHCiRV5jx2KBNB/ugJsw53Im5ievCjEONuSncGPh7ApBoOt/TBuzcY1w7gP7K3Ex20n4juC0QT7Iy3xNqlg0K8uQesxBC7Emv5rTFa3g2OZWM3lhT32k82uxzn55O/KI1/F4XcSX7cGNWoeoAjx//doU6yl/jv0+jizR6CPDDN/q/kQrgb/HP2aK2jJyhZ8wCfqLRO/34fdP19CdC+86E6AV2xYQJdhKSFJtLfBSXmUfZTj91bbCjWtPowdwq26lhhzaJU8dxr6GyWXPxKS6OH24unWbNdjBxjJ0Njcg0ifh+NiBTwbAOj0GKm852cvJUO1+s85mL/URgkDKJwXcl7RaQhNTcCvF9LEwSna5gsDI3woLnaRvfTOrBjL34wNcSaK+GUZhEPk3BUGX6YgS/5uLb43pIIHFP5pvLaFzAgDAl9R3IaUEIIb7p8I+W8/eRI4lLSop0KO2CDfWGpJE8bwVzdQEtajKvdfMwhcCWfJW/MkfnHKuSVFGeyns/R+fMViivrcamAax4q62ccpVM8hHAujyV9wbAdN/0XGAYUBrK9yZEuLW4YUWhl2sfaDPrKhVgg5Nn28nJsrOp2EddgsW7DyWQFKd450s3973TZi4OA50pnvnYy7gD7Jx7mou6d9s4ZZaDix9uwtukw36xJvogFyzK9VC7zctXG/zyOySE6DGZsRdC9Lod8M4G2MheLmU0pH4Oj2k4NwKhHfneCyw44ADiwrml3b4KNtQbPQr7vFxe1YVc0Z2fVyibRluYm7o2rfXmwPMWgBv37jlKDx6nRvdTqLum6+lF0/X09Vj4gEGhe0dC9A6loF+S4uiDLU6fYnFKlsXgAQqnE1KSLUpbYN6didzyZgs51zRwzDQbdx5nN2vowST3CXDdH1qZNdrGK7cn8uu/tFK4VZJ6sY8sWFyueWWVXyo+hBAhITP2QohepWH2ajhoCpwEeDSkA6MBFBQAfrtZAeULfH8OpkiqXsE6wK1hOObRFniuqcdxreH0T5fx15Gjzcx4by/B7CqtweUyDfXmLeclXYhXZfE6XVy0rMyu5z5AW5bpq6xQPj9+tYENwW8b1kZbi4W1U6Pvz1W5jwLM1DMzgLLQvyshwsgPyS447rA4Dp/hxLKgpQ2eereVDTv8aA3e/hbj0i1mJMIRJ9jQfrAPsIGjQysLBcTB4vU+fniYg507/dK8TPSMhUyxCSFCRhJ7IURvm+oxq43O1VDbAHcmg9UAKRqKFdy5wHyfW8O5XjjFDjVus0voX4BNK+HXM0wrkzgNGxU8Tg+6celCzllSyDOZI0iI5qQ+KNgtf/QYmLeSl3QR8WoSL9FJQz2Nbtbo5Bydcy4w0O/27wTw4t1hYXls2nZZDjnrFCo5jjil0V8CV03X06/TaKXR6cD/hf8dChFCFtS1whv/buEXN7VBBubqJwnOOtwOGpw2sNkUJx7uwOFQ+N2aqkrfN2dSmzQ3ne0ka4TFPW+2cNfF8Zz2h2Zze1KSMyGEEBEmH0VCiF6l4O8JsEXBb4CmZPiXgitT4Ke5cDlm8ykws8qHVUKlgptdcDuwGbgwB0oU3AD8egtM0TBxX+PRazhr2VqeSu3P0GholNdVwZn7kSOwLyrgIV3I1XQyf5ircssUaq5C1Wv0u1aC9R5AvsrfrlAvW1hbFaoRuHKCnrA5V+Xma/QrClVvYTX6lf/Z3nhvQoSNF3ML0AM0BMa7Anetn5Jdfs74QxsnH9nE6/PcFGzym87KgZ+bMMbGMYc6efadNv4030Njk58XLnTKxpFCCCGigszYCyF6m8MPtsD1dIOGzCb4iw90EQzs8H0u4PFtcNM2WDYc5iu4Q0PmRji+GQ7fCfE7IHG0aehW1N1Aqj7jhC/yeHVoOv2iqVFeVwXX3A8eQvKX+TysC3GrLF76nh9py1W57+/tULkqNw/I2/MLeSovF8gNVcxC9DoNg5IU5x8Tz49OcIFS2CxYv9XL/f8z9xFH2OG5f7Xw2UOJ9HsS1pb5mfu31t0/jw0euiiOHTt8/D3fC23w4UIPZ57gYs7RXl5Z7JO19kIIISJKEnshREQoQMPJwFmJ8BOAfDirw7dYCkqAG7TZOORmDfcCDeNhLvB6PDDYXHa37UMIMxdt4KNx4yAxMXZm6vcU7JY/bBjxnyzjRb0Gr8rm1UjHJURUUIBHc+uzzYxMUbtL6y0FVY0waIQpXEx0KR79n4eFK73E2aC8GdY36vYaGA33vdxCRYs2s/hOeG2llwXrfLR4tFxNCSGEiDj5KBJC9DblaZ/bcmJm7ZM2w8kVYNcw8UvzNa3hYSAfWALswnRk/+gjuPZE+AoYtA4OmwhPAzVdDUCv5uT/LuT9iRPNjHe0r6nvTHCf+7FjYd5K/qjX4FfZvB7puISICgrWNsLa+j3u3tngvgNsKKC2zSTxS3Zpc6tQ8c3FigpW1upvPb+pIfCcdDUXQggRYZLYCyF6W+s0eC/w93nAVOC+MfDKGLgLuOhIWIpZR/+UhuuAEzBN8p4CdmoYAlwPeCbAW3QnqV/D2V/l89K4cZFJ6hVgWWb7LQCfPzTVAsGGemPGwCfLeU2vwaWyeYXA7gJC7Nf27D7uhxnpFhOG2yja5GHVLt15h/u9dSWSTkVCCCGihCT2QojeVq/gNgAF1ZhkPmjBnt+s4Ka9PPcO5tEteg3nrFjH3IFDGJiUFN6k3lJm4q9j0q4Ajw82bISSMnA5IScb+qWENrkfPRq+KuAxXYhDZfECnXTLF2K/Y8HKMj/n/bYZnAriIx2QED0UvFuM2r3WDZ/PfNBpze5SFKXM3WWbrf37gpvKxOqaNCGiTYTGoyT2Qoj9gl7DqYsKea7/AIYkJ4fu+kUpcz7W2pyzHXZz3t6+A+LjYMhA8HjN1y0bbN4Cc1+DOefBklwoq4BLfwjeEKXewYZ6aUNJXFTAg3oNPpXN86E5uhB9iAWkSg29iGEqkBj4NTS3QGsLtDWBt8085/eC3+tFqRawtYIvDq3jsWx2LIe5A213gSsR4uLNh5ZlmQ8SSfKF6J7gePT5oWWP8ejToD3g93UYj/44tD8ey27Hspvx6IgDZ0JgPMYHZom6Ph4lsRdC7A8Oen8R744Zgz05qQcb3u9BKXMt9d9PYcJYmD0V3nwH6hpgxmS44V647Dy44AzToM/thq+3wiVnw8E5kDUe5twMPzgc0oeEroIg2FBvyFCSPl3OM7qQZpXFG6E5uhBCiMhQ7cmD2w319VBbA631gC5DDfkEd/YyyimglVLi8QAaN358+LFh4cQCFC04iCODdCbjKpyNf8txoDKJT4bUgZCSYkrAdicVkugL8U17jMe6OqirgdYGQG/HSvuEtuxllFFAG+WB8ejHjd7reExgOGlk4yyajd58HNgyiE+CfoPMeHQ4QPu/Oau/B0nshRB92t/u59iEIcwbPw7iE0Jbfq81JCXC9GyY+yrYLHjjH/D2s5CcBO+9ZpL+M6+AM0+AM46DLSVwzCHmcyDOZWbxyyogIy10cQVji4+HA8ZizVvB67oIp5rEy6F9FSGEEGGnlPnw8rqhvhYqG2to8tVjty1m64wnMH1pvq1lj//27fFcK5vZwlfAcx2enUXm8l9A1ZEk2ZIZlDiQ1H5gd7TP5guxP+s4HutqoaKxmhZfAw7bfLbMfBpYvtef62w8NrOZLcwHnunw7MEMX34detfBJNpSGJI0gJTU7xyPktiL3mYHRmGan6UAO4FUIBG5HSxCy1+9jGG5hTwyYlTok/ognw/GHwAnHwMnXQpvPgkpSeD1QWoyXHimmZ0/4ofg9oAzsB9A8IarChwjHL7RUG8JL9UsIaH/wWyk8zZhsUADbqAeKAe2YzYiE0KIPiCwTMTrAU8bVNc0UZaQhzVqLSWuP7GXnjQhspzts34S+PuhpOvzsG+fSlrlTAb2T8LhMkmFEPsTFWic5PWApxV21TRQ0W8letwqStXbmN2bwmEJJbOCxz6CRn0eVslk0itn079/PI44sNsDpwslib3oVQcBZ2D2JLdjtjxbiUn0ByMX5SK09JfLSExJxWW3h3eSwe83s/UAKcntVVnFpVC4AVYUwOuPwZjhsDjXJPLB7viNLWZ2P5y3tew2cMXBmo0cCmQT+5tzKcz5wtfhz0rgXWBNBOMSQoieU8rcCW6sg8aGBuqmfYR/2CeUqn8CVb0YySLK1SJgAE59LjUcR+qqk0hOSSGlXy+GIUQEBS/qGuuhsaGOmmkfojM/Yrt6l27syhQCCyhVC4BBOPR51HIsyXknkpyaREp/QGbsRe9wAD8DDsVsb7YU2ArURTAmsR846xfYdCF5n+fy8OjRgeVJIU6gbTYo3g7LV8PfnoWHnoUXfg+btsL7X8DRB8PVF8Ko4YCGbWWwYBlMOhDWfg2ZaTAq0/Q5CjWlTFO+slI4OJvnXVO4HmgL/StF1EBgHObG4f3AX4G3IxqRECL6OLDMDdTAmthoLClXgdLaneVQX+vGffAb1PAfKtR8THVSpFSzSb0E/JU0fRQDOI26FZfS6pH9JMS+cWChA2ORKB6Pfj/sLIOGuhbcB79OLe+xQ80HGiMY2S42q2eBtwLj8XTqll+Kx+uUxF70hvOBU4E7gBURjkXsX3wqi0d0EWp+Ln8YOSq0yb1SUN8I//wADp0OR8yGgnXwyl/hmktgzEizlZ1lmQTbUjB5IizOg5/fBWs3wdx7ISE+9OX4SpljlpVC9hhedk3hZvpeUg9m9mpx4FEAPIQpy18YyaCEEFHGQRU1DV/j2ziWocMgLiHQiCoKEgoVKPmqpL26aQAAIABJREFUrWqlckccLcl/ouTgJ/GodUBTRGP7pgYq1HtU8Bkp+nUG44p0QCJGOaigqnYrHvco0jPBFR9947FmVyuV5XG0Df0j2w5+JjAemyMa2zfVUaH+QwXzSNGvMST2yzFF9EsHngYewVx4CxERuohbP1/JQ6NGtTf6DRVfoBQ/2E/Fr035O3z7dYLf4/MHtsqzQhdHx9fweqG0FGaO5znXVG4muj6Mwul0TIXQyZEOROwhXf+DnB3n4oyn77ZUUe1/dPYWg1dg39Ph+Lt/VkFrM6xKf4tydXH3fni/lkTyjh/Rb8u9pFguRo0egsPBHv8YvSO4Ztfvh8a6VopLfLS6vqJ09u2g8novECEiJpnU4vNJ3n4vA+Ishg9Pi/x49EF9XQvbtkFb3GeUZt0KyUW9F0jPSGIvwu0KYDrmQluIiNJF3DR/FQ9mDsMeFxfZG8MqcPYNdQzBpL6kBA7L5mkrm1uA1tC+StSbhynL/yLCcYiO+mJiHxzIfm0uCP2+9lknn880WvJ6QAd6yCgsbDawO9sbHimbedgsU94DnZ8YJLEPgXMuJO33N5LmSWFwwoHEJYDNYdZXQRg+IFT7DR+fB3xeqK31sbVpFb7x66lIfhhYFeIXFSJGvH05adN+Rrq3PwMTxhAXHxiPdqDr+7h3XYfx6PWA3wu1NW62thTgG19IRdLDxGDPHknsRbj9CXgT+CjSgQgBOHQhNy8s4DfpGbhcruio+gqVYPn9NpPUP2tl8X9Edh1YpFyI6enxi0gHIjroK4l9cE2oxwMeN3jboK0Z3OzCPXATrf120uhqQNGKjRYsmvHSikZjJw6Iw08CXuJJ8iYRXzsIR/UI7K2ZJCSDzQkOl1k3pNj7SUoS+9AZpM/GxQkkl2TRr34GiXEJOOK9OFx27HZ2X/13t7IieNMnuH7Y3QIejwd3k4NmitmZvgadupJi9RawIdRvS4iYNET/EAfHk7ptEqn1M0mIjzPjMS4wHiEk47GtBbxuL21NdlqsLVSmF6JTlrJN/RX4OqTvqRfJGnsRbpMwne+FiAYelcWjugj/Zyt4cMyY8DTUi4TdjfLK4JCJPGVlcRv7T/n9nr4Eboh0EKKPUZa5c9bcBM010NrsRWcsp3bUIrwU46OYMrUBs0NDdRePmgIMIVmPZgCj8TGSwVWzUFsPweVIIi4VkpLBEdjaoy+crKLNLvUO8A4wjmF6Fj6yGbRxGnEVh+GwkrHH+XAl2XA6zQdGx/VTHf85OlYPe73mxo+7CdytPrweGx61jpr0hTQO34CH1dSoFcCu3nqbQsSESvUP4B+UMoFMPRM/Uxi4YRquikNwWEk4AuPR8T3jseO0dXBG3u0149HT4sfjsfDYiqgZtojGEetpZTUNagVdP29HLUnsRbgNRT64RHRxq0k8ogtpnb+KJ0aOjP3kvuOa+uzRvGKfwi30zUZ5XbUdGB3pIEQMUgqwgfax+yrRssDjheod0FAF/oTllOe8TBKFuCmnXJUAnn18xXqgngb1NQ0mArYzjAw9DD/jGLDlbHYVnk1Sf+ifBnF9rMwoumygVG0AnOzQw4hjCPGMpD+TSd44E//WKSh/BpYLlA8suwdLKTQ2wIvfp9Dajt8Cv7sJFb8ZnZFP9Zg8WiikmlJQO5BrIiG6Yh3b1TrARZnOIIE0HIxkMJNJ2jAbX3E2yp+O5ezCeGxrRCVugmH57BqTRyuFVFMOqpze3T4y7KQUX4RbDdA/0kEIsTe+Ndy9YBX3hbpbfm8Klt+XlkLWKF5JncX17J/l93tqAWQrpmgS7aX4SkFrJVSvgCHHgCPRlNqX74CaEh/27FdZn/kYUAKqt8ZYPOgBjG+5Bu+CG0gZkkhaOiQkQGsT5A2VUvzwcwBO0C7ABiQBg4H+JJCIA4tm3HhowFzz7AC8gAeUG3OT1d/N17wKeDFk70CIvsMBuEA7MRPUwfHYj2QSsbBopg0PjZgZ+B2Aj30fjwr4KfBqCN9D2EhiL8JNEnsR1XQB132WZ2buI91Qr7u+0SgviyetydzCvs8c9jWtQFykgxAdZOh/Mq3iHFxROtCUBU0lsPFxGPVLaLB72Na0E6f/CbYf8nCkwwMgc9VFtPhvY5g1lgHJcWwZ81eK1QWRDkuEnAeTwAghIssG7AQGRDqQrpBSfCHEfk1N5hldRNzC1dw7NB1XrCT3wZn6khI4bDLPWlnciST1IppZVFJfAyn9zJ7FED2DTQUbKjVpanZ68LYVwtR3qFS/w8z2RIft094C3kJv+SnVKVeQSG6kQxJh0RLpAIQQgCkvi5nxKDP2Itxkxl7EAqcu5MYv8nhg5Ehsod7nPtQ6rqk/ZBJPWdncDjRFOq4oIzP20WbW3Vlsuu8ShheeSrItm+T+Hlxxju/s/N4blGVeu6W5lfqqOLavyWP7TbXEl91AM/mRCUoI6jGNFYUQkWUBJcCwSAfSFZLYi3CTxF7ECocu5Jdf5PHoqFHRu+a+Y1I/7QBeTJzBr9i/G+V9F0nso5aeyVBOYciqC3D5xpGapkhOVWYLo+4uRd4HSgVKXvzQUOulbqedZtt8yqb/ibo5tfDHI4EHMOWXQkSCJPZCRIeYSuylFF8IIQyPyuIxXYRzfi6/j8aGesHy+7IymDyGlxNncBOS1IuYo1awg1Xs0K+SylGkL74F25Yp9BsEA9I6DLwQbu8W3HteWdDaAjtLNY3VoAfOo2TW4zSRH+hYPhk4FrOuUgghhIgZktgLIUQHahIP6iI8n6/kkZEjwRUlu0sFZ+q3b4fZk3jGaRrlxcy6LyH24AVVQh1vUsebwHgylv6ckl1nEuewMbB/P/qlJuJ0YhLyQIGh6kKhoQ78jwbwB0vtoa5+Jzvr3Ph8zVRsfIq2OX/HdEzuSK6LhBBCxCT5ABNCiD2oSTymC7EWrOaBjAyckW6ot7v7/XY4LItnrGxJ6kWfs56yg34F/AqYgbPgePo7jsFZmUR/BpFopeNUibjiLKyOSb5i99Z5Wpv/9nrB7fbSRhO1ni3UuxrwDaikeudneA/7GPi6C/FEwe08IYQQousksRfhlPLz8/E889eOV15CxAStsnhSr8X+1SruyRiGM1Iz98Hy++3tSf1tSFLfGcc1P6bt+bex6P7+0SLyVuKevJIKHgTSKGEcdj2WfozAxmA0LhzYsbc5cPhNq8s2mxu/y4MHL4oWPFRQXb8VUtcBa5ExI4QQoo+TxF6ES2rlV7y4ZjOpT/+G+9VEHsA0sxIiVrjVRB7Vhfg+W8lDY8b0/pr74Ex9WRkcPJGnrWxuRRKUziQ35/HE4gISnvsNj6hJ3AU0Rzoosc8qgAq8agG7vvF8AuCkfS28F/MZIz0nhBBC7JesSAcg+qTU8vm8uLmC80aOwvnVKm7TRdwBOCIdmBDd5FZZPHLsTG4s3goeT9eW+IZCx+732aN52T5Fyu+7IKlhBU/mbeTy0aOxf1XA9bqQ+5Hu+H1RM1ALVAUedUhSL4QQYj8mib0ItdTyBbxQvIvzMjJM47Fhmdjm53G3LuQOZItFEXv8ahKPHzWdO7duBbc7/Ml9sPy+tBSmHciLKTO5Aal46Uxi/XKeWL2FyzIzwemEzGGoBau5URdxH3JjUQghhBB9mCT2IpSGbp/PayW7+HFGBliWKVt2OmHUKFiwmnvcBTyEJPciBqlJ/O7oadxYvBV/a2v4kvvgTP22bXDQJJ5KzOGXQGN4Xq3PGFC1mBeKtjFneCbYbObc43DAyBGwsIBbWvJ5HJm5F50LjmzpCyOEECKmSGIvQmXQjq94urSKs9LS2pN6MH/a7TB8OCxZwy16Lb9GZs9EDFLZPHX0dO7cUU5bOJL74Ex9SQkcNpln7dncDrhD+yp9TmLVYuZuKOWi9PRvn3tsdsjMhJXr+Lm/kAeRc48QQggh+iBJ7EUopJR9yfPFlZw7dGj7bFlHwdmzESNgfi736CLuRmbPROzxqiweO2wy92zbhvaEsCy/45r6Q7KYa2VxK9AUmqP3WUn1y3lyYxkXZWR897nHHkjuF63hOl3E7zCN14QQQggh+gxJ7EVP9atYwIsluzg3PX3vF9ZBwQvsESPgq3zu0EXcBbh6NVohes6tsnjkmBxu3FocmoZ632qUN5lbkKS+M8kNK5hbsJU535XUB3VM7hfkc7NeywNIci+EEEKIPkQSe9ETyRVf8tzmCn68ZwnsdwmuuR+Wie2LPO7Ua/g/ZM29iD1elc0TR0/nzp52yw+W35eVweQxvBxolCfl998vvnEFj63ezGWZw7p+7gkuCVqwiht0EfcgW74KIaKTM9IBCCEAk6PEzHiUxF7sqyGlX/B68S7OHzbMJCdd3d97d0O9kbCggHv1On5H+17EQsQMNYnfHTWdGzdvhra27if3wZn6khKYPZGnUmbyC6RRXmf6VS3mxYKtXJGZ+f0z9XvquCRoYQG3uFfzGBAf1mhFLFJI8zwRWb+PdABCCAB8wKORDqKrJLEX+yKtYiHPbq/m7LShZrasu4IX2MOHw4I8btPruA/5fRQxSE3iyWOn839lpbi701CvY1J/2GSesWdzG7IPd2dSq5fy1IZSLu6s/P67dCzLX7aWXzbl8QhyY1EIEV2ui3QAQgjA3Py/JtJBdJUkUqK7koo/48WtFd/dKK+rOib3X+ZyhzTUEzHKr7J54vBp3FNaiqcrM/fB8vvt2+HwKTytJnEb0Nwr0cauhNqlzF1fwsUZnfTz6EzH5H7VBn6mC/kdMnMvhIgexcDASAchhOAAYGOkg+gqSexFd/Tb8SUvVtRxRk+T+qCOpbFfruI3gYZ6ktyLWONWE3n0yKncUdxJQ73djfK2w+wJPKsmcStSft+Z5MaVzF1bwqUZGWYLu1Cce+x2yBwOC1Zzqy7kt0hDPSE9X0R0KARmRDoIIQSHA8siHURXSWIvuiq1fD4vbKnkgs6633dXh5l79VU+t+lC7kCaWonY41ZZPHrMDG7+roZ6SoEv2P1+DC87p3IL0BKJYGNIUuNKnsjf1Hn3++7S2hxv+HD4qoDr9VruR3bqEEJE3hfAmZEOQgjBZcA7kQ6iqySxF13Rv/xLXirexXndbZTXVR275c/P525dyN3I76eIPVpN4tGjpnPb1q3g7rDPfXCmfnspTB/H8ykzuR4pv+9Mct0y5q7ezOXdbZTXVcEbi5mZqK/yuTHQzDNmOuCKsJHmeSKS3gfSgZmRDkSI/di5QBWwItKBdJUkTqIzQ0u/5JWSKn6UkdG1baX21Te65a/m1+4CHgzPKwkRXmoSDx2dw03FxfiCDfWCjfIOzeKp+Glcj+xT35n+1Ut5tmgblw0bFp6kPqhjv4+F+dzYks9jyMy9ECJyyoB3gd8B0yIcixD7o5OAB4mxRpZS7iy+z4CyBTxTspOzhw4Nb1If1HGv6SVruEUX0qCyeAjZ11vEGJXFU7oQ58IC7kkbiquiAg6bzLMqi9uR7vedidu5iKfXl3BhqMvvv0vHhnor1/FzXYRbTZJ/KyFExPwFGAzcgZnBXwFsA+ojGZQQfdhgTLO8g4HjgRuIocZ5IE1ixHdLKV/AyyU7+VFaiBrldUdwhnPLVjg6hwfUJH4LtPZeBEKEhFMXcuOHS7jvpEN5Xk3kdmSmvjPJ9ct5rGgbV4S6n0dXdKyuOHwyj6osfo0smdifzADmAL8GdkU4FiEADgPOwOzcoTHbc64CMjGJiCwbCT8FlAOD+O5J0WbMTZd09v5vYmGSxLHf8XUROX7a/00sYAfwT2BdxCLaR5LYi73pVz6fF4qrOC8jvXdm6vdGKbNGubQU7+FTeEhN4n5k9kzEHpfewMFqHCuQpL4zyY0reDJ/M5cNHx7Zc4/XC9u2wRHTeFxN5E6kyeH+QhJ7EY0cmJnEoUAqUAH0B5KQJLE3tABPAA9jzgt7W8rsxkxApbL3fxMF7MTcHBDRw8Ik9q1ANbAdKCFGx5Uk9mJPSeXzeWnrTs4fNixyF9ZBweS+uBiOzuHXKov7IxeNECKM4hpXMDd/M1eGq1FedyhldjYoKYEjpvAHlcUdgC9yEYleIom9EGJvlgGnY26qCBGVpHme6Cit+DPeKqnm/Mwwdb/vrmBDvdGjYcFq7nMX8AdMGZoQou/ov3MRr6wp5srhwyOf1EN7Q72RI2HhGm5tymMuphRW9G3BCY+YnK0RQoSNhamcECJqSWIfZTQM13CyNqU8e/v6KG3KsUJtSMVCntlRyxlpaaCi6DfjWw31iriH7if3zilMSUSqVMR+SsNBGo5kL2NAQ5yGCRr6RSC0lOqlzP26jAvTI7j0Z2+C+9xnZkLeBn7Wks/DdP/c45jEpCTk81YIIYQQYSQXGtHnWuBKIGFvX1wIFzSYMsFQSto+nxe2VnDu0Ag0yuuK4OzZiBHw5Sru0oX8Gojr6s9P1VMnaq2PRX7nxf5JLYE/A5O/4+tDP4Hrv+fr4ZJYt4wn15dwcW91v++ub3XLL+R3dGPmfqqeOtqhHScilUZCCCGECCPZ7i6KaDh6HZw/AYoAvzadM38FOIH/KvhfIriTTQM5peGnwEGAX5m9FrdpyAEuAFInwR/XwtJOXrZfxZc8V1zFWdGa1AcFL7BHjIAF+dyli7CpSTxA593yUyysK2zYjsjROZaFlenH36BQIzS6SKF0rsp9b7qebgOunsCEf/5Z/bk0R+dcoVDTgS25KvdZoDHsb1KIMNBwz1LTQVkBLm3WCR6LeeJuwBtvzituYKCGO4FEIF/Bm0C9hkswM/6bFLyO6RDcE8mNy3li9VZ+Gu596nuqY9XQgtXcqtfiUBO5i8675cdbWHMU6tQcnWO3YevvxVtnYWX58S9VqLij1dHvPc7jLdP19JtGMOIf76p3i6fpaZfasB3sx78jT+U9gWxvJYQQQohOyOxldNk4HvKA9xVU5MJrmC1N/rsZrtKQ6TXNm7zaXJRPBV4EPimBqzUMXWhm/POB596Fp/iOkv6AlIoFPL+5kvOjPakPCs7cZw7HWrCK23Uht9P5TFi9Qm3U6Dwv3sXAEQp1jub/2bvvOCnK+4Hjn2dmtl2BA44uiHS4A4RDKSoqdqyoscQYY8OWaBJT1FiiaWp+UWMvMbErYgEVUSwIior0ciC9t+u3t7d1Zp7fH88udxyHIF7Zw+f9eh1ly8yzO3uz832e7/N95ItAR+AIVCeX1426J70h3sgokAVXo97fJ11cd6gcenujvjBNa1wfeVUgPknCcavgXOA1YEUMHhc1Fd+jEu4H5gNPAK0kHC7hzI/gPFRF4ISE6/lhcw0zg3N5aPF6rkj3oD4llZbfrRt8vojfyOXcg+p0/S4RgVgBFNrYXwDDDYxfSOR/DYwcgRi5lKVeAKfKOfVL8WWrAllwsUCMBv4jkaVD5dD7GvmlaZqmaZp2ENCBfRoRUCbUUhgrAYbBOOAlAR/1VKn5ObGagj7O59ATaAtM7aZG2IYepS40PxCwqBIWSnUxXp92O2bx7IZiLuyaJoXy9leqoF637hizFnPn/sy5F4hiYNtSsbTIwUkYGO8vFAs3CkTExXVQ76sUfhGPE8+UyJMEYsoCsWCxiTndwOiD6gTQtBZHwFoDIgJ2Cvi4r5ru84WA59fBSYBd6+GJuTAKVfn3fgGzgCtPghcFrAI+mwHtJfQ5wOa0Kp/DY4UbuSIdqt9/H7WnBH2xhJvdQu4DfN/1HIEoksjtS8XSrS6uDXywUCxchxrtd8opB8DwG4kiigIu7vEC8el8MX+BifmeQBwGdG3s16btRqCL52mapmktjE7FTy8i+ZPqcLljHfQvgeh8OKIAnORaS5aAzyTIBNxcCPdL+CsQmg+nd4deRUCuGoX7qJ79dNrxOY9tLObcdCtWtb9qV6z+fDG3u4V4jTz++B1PMagpGiZc3OLUvwUi9epl8jF+VEfBv4bJYeUSaaCyIPTvi9ZSGTL5+ZeQVwq/jkGbHeAm1Hki9TsQEHCthFu2wLsZsFbC7wHPerizFG4MgjgeVqPS9r+vNmVzePjbNJ5Tvy+10/K/XMavqxfizRzKb9j7+5E6pwuJFAJRVOt2UoF98uzkEwgvcPcwOeyG5LlnJfrco2mapmnaPuiLhfTkAq3mw3XDIQsIhGAmgAHSBqQawdnihbOAQ5fD1wPg9L7wRiv4DSqldoCA9XW2nbN1Fo9vLGZ8p04tM6hPqX2B/cUS/iALCYk87kfNFd79sSpu2bWMkYUl1A0iLpEBIOHitjEwugIVQKlEPrNQLJwGUCAL+gJbm+J1aVpjEDXB+9ntYLuAy4GBq2E26pwDgISxyZod9ybT8s8BVh8GEwW8kHxMd/H9fx/8xV/xyMrNXNJSg/qU2gX1Fq7iermciBjIn6jn3IPqPEyNAMvkvxGIuIvrXcc6G/ALS3RHzaUvEoh75ov5rwIUyIIBwMameWWapmmaprVUOrBPL6nRYg9Q5cAaCX8BSjZBdSZc78C2RPKaMqrm1RcnH/+8gBXlsEXCA0DVDLV01e+pKS7XevvnPLW5RAX1LfnCOqV2auxnC7lHFuITeXsW1BOIHcDlQ+XQC2VMZkmPtAAcnEUGxrgCWXC3RFajRt0E8CLwswJZcKyLm+nizkelIWtaS2SEVTE8gDVRuEDC3atgSwWEJUz4rKbj6yip5uBXoc4h04DpM+AOCf2ANsBcVFE9Zz/3nx2cywPLN7X8oD6ldnD/xRJuloUIkccd1Cmo5+IWC0T/oXLoZRLZRibUucfFXSEQ4wtkwV0SuV0goqiR/TeAywtkweESGXBxvwVWNPkL/PHSS6JqmqZpLZL+AksvRvLCeaeAMqmKt7UHNqEuoDsBWwBDwGYJeUAuqir+N0C1VP/vh5qTv0GolFmA1ttn8vTGEi7o0qV5RuqFUBfCqfn8jq1K/zfUtuNx2LoV++jB3CsG8hdqpcYOZnCmJa3BElkBWBbWjrlibjEghslhAwWiLWqkPpEgsWWJWBIqkAV5QEeJjAZFcNka1ujK1FpL5ZNQIOBLCdlAPmrJtoWoufI2arR4p1ArbgxDTUcpEvAtqmBeP6AbqtNshYDS/dx3dmge/168jsu7dWvGc4+ZPPeg5jS57j6ftt/bTiRgyxbk0YN4SOTxJ2qKEQIECmTBIBc3LJHCwiqeJ+btAEQyE6gDUCkQiRixrUvF0uAwOayfQHSVyESpKF26kY0VDdNabT8cAVyBqltT1sxt0TQtfcxDZbBtae6GaNre6MD+xyF75yyeXlfERV27NuyFdd2ie/X9P/VTWQVPvgRTP4Fxx8PlF0KHdg17gR2Pw6ZNcOww7hQD+EvDbFnTtAMUCM3j4cXruKqhC+Xt7VwD6vbUfUJAdRiefwMmTYVjR8K1P4POHRo+uN+8GY4ZzD9FHrexe0FCreXQgb2mafXRgb2W9nRV/INfp00zeHFjacMH9YkEVIXUqLsQYDvqAhpq9lMRhG8WwrqNMPlDdd/MSXBIZ/hoZsNdWENNtfwePeDzRdxjL+V+9Gdc05pL2+Iv+c+yjVzVrVvDBvW2DcGQOn8Iof4ur4SvF8DKtRCJqnOQIcA04IPPoKwSZrwGg/vD5A8a/tyTKub55TJ+X72Qf6MyIjRN0zRN05qEDnoObu13zubR7eWc3bFjwwb1hgHrNsNPfw0Vleri+qv58MoUiMVh6w749Ev40/2wdhMkHNiyHa66SD137FGwdBUUlaqL74ZSp2L172Uhd6FrSWhaU8sq/YqH12zjpw298oZhwJYdcNUfYUex6jCYvwyeehkCfnhzGtz3BKxYrYL5UFg9/ooLwLTUuWfFWti6U22roaTWue+aLKgXX8J9qPonWsvUwqtAaJqmaT82OuA5eGVtncVTG3Y2TqE8KaFndzj5aNi4Fdq0hnc+gtOOhyUr4KMv4MjB8IdroXcPFejvKAZSKbISQtVqZK2hVwyuXVAvuc69SM65TzTcXjRN24uM0Hz+vWx94xTKk1Jl/Iw7DjZsgW5dYOK7cMoYOGII9OsF366FhYWqM/HoI1TmkKAmRT8Wh3C44eei1S6o980KfiWXExMDuZ36q+VrmqZpmqY1mJYc2PcEjkMVgToU2AFUoubH7W+l5oOVnPo03g07GNu9+55zURtkBxIy/ND3MDVvdWAfNTKW3xc+mQ2zvoHjR0Hvw5IX06knpubAkkzhb9hm7dY+y0oG9wv5w3//yqgrbsfm4Kgr4aDmfq5ALVU2Gz2f92A0CDgeGIgqWjcJuJT07qCSbz+KZ/5KTuh5GIhGKJQnJfh90Ks7TJkORwyGNRvg1hsgYUN2JvQ+FBYug5enqHOQae7+fMetKaTX0GpnDX02n9+++k8Ov/j3aXHucVAFEtcDXwCfUaeCv6ZpmqZpLVdLDOxbAf9BBfYfAl8BE4Fy1IXLJHQKnT18IIMXrmRsIqHmnTcGx4UhA+G1d+Dzb9TIfNdOMP5UGD4YnnoF3pgKF5wBg/pDp/ZqbqxhqIvq1lmQEaDRjpYQEI1CIkHV+SfyyBW3sx5V6bulk0Bb1KoINwF3AncDs5qzUVqDaY06x3UG3gemAttRBXuWUGvN+TTkHDucgV8u5oR4Avz+xqmA7zrQvze89QHMnAN5faBLB5UVNPVTeGsanHMKzHxdzbHftkPVADGEOv8EfJCVue/9HCghIB6DSITY2WN5HFhD8597JGpFhF7ARajzxgPA683ZKE3TNE3TGkZLC+z7AS8DjwMvoEcp96rj0Szb/CHhZSt5u1cvyMho+Ats14VunSG/H1z+O3jrKbWPgF+lwz5wB2zeBs9OVBfRg/vDPf+Gv/0eXngDRg+Hju3V0lMNTQgIBmHDOipPm8CxwPKG30uzmwE8ispSeQl4EniwWVuk/VAjUcH89cBr9dy/o2mb8/21HclSYPvUp5nZuzdkZjbCuUdCl441556Jj0F1BGZ8pUbnX3tMjeqTnPfe9zD4+6Nw7y3w3CQYXaA6IRvr3FNVBatW4p51PSNRnTEoi1rUAAAgAElEQVTp5AvgeaAH8F/gKOCPqGUMNU3TNE1roZo7NfD7sICZwB3Ap83clhZDLuOimYt5pnNnsjIyGn77lgUfzoT7HoePX9lzXXrDSM6xddWF9+TpULgS8vqqJe9aZTfOiF5lJezcQckJl3EcUNjwe0g7HYA5wM9Qqflay9MTFczfDkxv5rb8YHIpZ85cxEsdO9MqK6vht29ZMPNruOiXsGWOui2Vcu84uy93F4vDtBkwf6nKLDr7JFUXpO75qiFUVcHOHZQdfylnAl82/B4aVDYqy+0dVIe5VrPc3a1ARTO3RdO09KGXu9PSXksasb8CNfKhg/rvQeTzmizE/1Uh/yKXtg05epZaM7oiCBecqSpOu3Vm/7puzbJSfh9cck7NnP/aF98NqaICYmHWjj2cK/hxBPUARcDZwBPAMaR3urZWv8uBFzkIgnoAMYh35TKunvMtDwMdsxuwEy917glWwW+vAo8F8YSa6lOXlODzwnnj4PzTAanS8hsjqA8GoTrIpuOGcQ3pH9QDVAHXoaazPYeecw8ta8BD0zRN03ZpScvdnQP8r7kb0RKJPF4YlcfN27cTCodrLop/0DaFWjd66sfw+lQ491Rw9jExQkp14Z1IXoA31kh9Isrqgn5cI4b86OacL0EVxzqumduhfX89gU6ogmYHDZHPpBEDuam8hJJQqOHOPZVV8MEMde658EwVqH+X2ueeRCOce1Lp99VBNh3Rj+tFHh807B4a1XpUB+jZzd0QTdM0TdMOXEsK7PsDi5u7ES2UK/J47tjDuXrtWojFGuACOzmXfvBAePguyG3TOCNg+8sw1GhZRRlbh/Zigsjjk+ZrTbOagqqkrrUsvVErHWxr7oY0MCkGMnFUPhPWr8eORn/4uSdVFT+/H/zjj2quvduM+SmGAaEQ7NhO+RF9mSAGMbX5WnPAXgXObO5GaJqmaZp24FpSYO8jvZd5Snsij9f6tGP8mjWqWvwPucCWgN+rClB17ti8Qb0Q6sJ6w3qqjr6Yc8Sgg2vU83tahKqWr7UsnVBp0GXN3ZDGIPJ5+7SrOHnVKohEfnhw7/WogL5Lx4Zp34ESAqqrVaG8sT/nDDGYD5u3RQfsK2BYczdC0zRN07QD15ICe60B9B7P5JOHc/6G9cSrq3/YtiS7z6FvLpWVsHY1odOvYTCquMmP2XZUIT2tZckC4hzcS3XOWPwFp6xbSywU+uEbc2Xzn3uCQVi7hshZ1zOUljGnfm+qgK7N3Yg0oufZa5qmaS2ODux/hMRg3jyhgKtKiilvqDn3zaWyEoLlbApt4WRgQ3O3Jw0IWlZRTE2xaP51zhvdrc8z/eQRXFJeQnFDBPfNKTn1Z9upIziL9FvS7kB4mrsBaeZg7mTTNE3TDkI6APiREoN4WS7D+rKQB4CcxlhrurFVVIAdZdXIgVw36kK+au72pJEWdiQ1oBFWVE9PIp835TI8c77lISHomJXV8s49wSBEQmwclccNIp+Pm7s9mqZpmqZpesT+x8sV+Tw/Oo9fbdiI3SAF9ZqIEBCshEiI9Yf35joxSC+BqGktichn4oj+/Grb1oZbqaMpGIaqfl9Rxo6Cvlwv8ltkoTxN0zRN0w5CLSmwt9Frczc0V+Tz0vDDuGDNmgaqlt/IUhWot2ym8oie/Fzk66Be01ogKfKZNGYgF61eDbGo+t1OZ4YB4TCsXYM9egCXiHzeb+42aY0izb8FNU3TNK1+Fj0/LMfw56R1LqQwIfoJ+I6T6js3TdsqBDhVkHX6KJaKr5u7Ofur3XG8Xfga56xaxeRevSAjIz1TY4VQc+rXryd4+gSOAFY3d5s0TTtw1nCmAse+9xQz+/SBdJ0SJIRKv1+1Cnn29QwGVjR3mzRN0zRN02qzsDJyGDy0+csL79NQ0n7AXhiwbQMU4m3upnxfeRcxRS7jki+W8ESHTrTKyGjuFu2pogJKi9h5+gROQQf1mnawmHX6KM75fBn/a9+BNllZzd2cPVVWQkkxxdtXcj46qNc0TdM0LQ1ZyOR6ZW66125K9/YBQoJ0IW1TCr6byOdVWYj3q0L+RS5t02n0rKIC4hHWjBnCVcDi5m6PpmkNRwxmiizk2jkreBjomJ2dPueeYBDCVWwcM4Trjr2EWc3dHq3JpMknUNM0TdP2T5rPatSamBR5vDAqj99u20Y4Emn+Ofep9Pt4hDXD+nKtGMzM5m1R2guh6lFoLUs0+fOjJfKYNGIgN5UUUxYKNf+ceyFUobxQkM3D+3ODyGda87ZI0zRN0zRt7/Ryd1pdrsjjebmE6Idzea1PH/D5mmf0zDBUUF9azI4xQ7hK5DVjUF8gj6Zs632EDS9CpOlIjilJbPdR+mhvOv/zK2QkfddFl65J586rWWRc1Kj7KZC/pGjbpSSMNC6I5XEJvtcZJ2zS5qLzIZa+Ha6mC526vMF8cX8jbF2KgUyUy4hNnc3bA/qDz998555QCLZtIXhCAVeJPKY3fSs0TdM0TdP2nw7stXqJwUxc/z6xlat5u1cvCASa9gI7NVqWLJQ3DljYdHuvx1a60zs4mtxO4KZpXA8gDgH+AdIZSTqXejAMmD8rv9H3s5MjyXOPxN/EH+DvS5yp/paya9oeNyEgHoWlbG/U3eQzGTj2/WeY2ac3BJq4mKcQKqhf+S3uWddzIjC36fauaZqmaZp2YHRgr+3VYeOYLJdwwacLeeGQbvibsqBeZSVs3kTw9AkMA9Y23Z73wkEiDLVCg5HmRRwRqt5DOjNMEGbjF85wcDEM1ZGQzoF9ShrnFSCEeh+dJpl7PKtXDuM2buSNQ7qRkZnZBHtMCgZh82ZCZ13PccD8ptuzpmmapmnagUvflE8tLYjBTBpbwDWlJZSFw00z576iAqoq2XDKUMaRDkF9i9MCAtimpN+OhiHr+Vcj6vcTpp1wBJeVl1EUCjXFHlVQH6xgy8lHcC46qP+xSn3L6TOHpmma1qLowF7bJ5HPS6PyuLl4J5Xh6sYN7isrwY6yasQArhQFzG68PWmalu5EHm+OHMBNFWUUVTfiuSe1Tn24io0j+nOtGMRHjbMnTdM0TdO0xrHvVPwYUCYhDGQDbQR4gEoJPgH+5OMkUCohq9ZtMaBcquf4krdFgM1SdSkYQA6QI9S/XWCnVHW9RfL+1sn7U2XAnOQ2fUC2qLmtVEKmgFTKpp1sdysBRVLVm5bU9MV3TP67mN1X0muXfI21uzwSye1Hk/dnp3O+bKNQBfWWkpj2NS/169fwBfVS1e+rKtk4cgDXiXw+bbita5rWQkmRz0S5DPvjebzQoweBhq73YRgqqC8rpujow7lO5Onq95qmaZqmtTx7H7GXQBX87FiLxa9kE57bhi//k8XofAs2Sd66PcBvzvaqoFcCCfjqkUz+Ms7atXDTzSdYzHsxm9+NNdVtEfj72RaxRW2ontuGii9zmHxvJlgCIhJaC5a/nE1kfs3979yfxYAuhtqPA0M6Cab/O4sXb/KrTgIbxh1mMPs/2TxwqVd1ONhwRh+Dhf/J4rqxFlumtya+uA3h+TlEF+ZgL23D27cEePQGP1VzcogtakNsURvspW2Y/mAW/XOF6mRAvY4TB5vMeyGbss9zeOCGAFQ08lFJT1IM4uUsh3PWroFYrOFGzwwDqqth4wZCWTF+KgbpoF7TtF2kyOeNLJtzV6+GWLThlsIzDAiHYeVKyDG4UAf1mqZpmqa1VHu/PIrB/13m5VfnB/jHq1EyCip48r04D1wR4NiTLAJ+gc8namahuZCZIfB51b/JBCvHZEcluDkWZKnbW2cJlnybILNTOTknVfLZMputT2fTq6cFBgRtOOqaSjIHlpMzuoLqoMOfLvCpUfIEnNDXxDAFK6oEp+UZYINlqO3mDfRw/BAT4mCZ0Cpb8MSzCQ45uRKvp4ydQYn/vCqsvuWM/3WELu0MfvdCFF+nMnyHl2MNKufk34T4tkTuyiDo3s3gl2f6ePm9GG37VDCwp8VNF3pVp8KP0JhrmeKJc86qVciGSI0VQs2pX7OG4LgJDBp0KV82TEs1TTuYjLqKD8ZdzbErViKrqhrm3BMMwvLluOfcQL9BF/NZgzS05dJzyjVN0zStBas/Fd+Fbh0FXbtbLJgX57XpCegteOHzBC+vcXCqJLewZzqklMkrA1tyZjeTnl0N/vBalFvHeTmts2BamYuUYJrACJWy/9Drcbq2M3jkEi/j/h0FCW0CQGfAgfXbXdp2sujjgzUBCHSymPhpjBMHmbiHGkxb6uK1YMVGBzshOe8oDzNWx1RbJNAK6KquAA0BdBDJKzqJlOAzgR5CTTMAyKiVhi8gUi256oUoJSUS+kDhJod2meJHfQl0/LVMkcu5dPZiHqMjrX9ItfyKCigvZdvpEzgL2NBQbdQ07aA06/SjOHf2Uv4jJe2ysg58Q5WVUF7CzhMGczGwqsFaWFuBDBDiGHZiYqTxt4ZBNSVdDHK3HYNLE65B8D25CLpis0x81MgrSAh+1N/ymqZpWku018A+v60gZMOcdY6auy4AE5ztrpq7/l1fqhLadzJo7YHl/xcnMM5DbmcTltRZJkyoFkSKHHod7gUHsv2CWy71c1NEBd5WlsGcpTarSyWD2wmO7m9y2v9F8F/uJbONCVk2oGLxxz5KcMs5Ps4aaGPb+/5OTjhw4UgPp/UWCAGmKfj4mwT3fWarOf0CiqslVEkIS04aZTGou8k178Zqagb8SImBvCIL8XxVyL/IpW1m5vef91pRAYkoq4/OZwIHQwXqMBBKvgmZAgKoD2alVBknqQ6jVD2K3Fq/RNVAQqp6EikVyboOoOpaZCZrVQhUDYniWr+HJqq+RaBWexJAUO5eMyIKRJO1J1K3hZPPt5OPr6uD6gjb1ZaUtmLP34NI8j0wUa/Zs+fm0ooLVEvVboOaGiE2qkZI6hiCej/DasrQLpUSTKEyklJ2ypp6Ht7kNlPvQwR1XFOb8KCORe33KZrcTxtR87gQ4NTZd0Xyc1Ul98wgslDPr5Cq3XVvr+/M76C2lbWX+9OEyGOyXI5vznL+DXTMzv7+555UobyjBnGdGMSMRmkoQCmHkPHZh+R1BJnOy2Qa0Pu/YKyYVTMPLQ0JA4q3gJBeEIl9P0HTNE3Tfjzqv3wT6hoSAR6zzn0u6qK3HjL1hwvHj/Ayop/JN0uyyM01iVuCF9+q/3tYCnBd9VxHQkWlS1VY0refl5Iyh3vejoMjGTrIw5hBHr55IROP3yAr22DGjDiuq77vv1jtsHaDzTknepn4XmyfL14ICIYlJWUuhiEwTUlVuE6nhQAiksvGejhjrI93pkdZv9GFJlzTPU1JkccLchnup/N5qvuh+Pe3qFUq/T4WZm1BP64TeQdBCmwZ3PIzL+eNshBC8PHCBLe8m4ASl0l/CnDja3G2F7nJcSDBvMcyGH5DtQruQ5KHLvdxaFeT8XeEoZ0KpN+5zU+vHhZSQklQ8sbsBI9+nAAXRvQzeeEhPwlHbTIUkzz/mc3jU2K7pq2cPsTklvN8XPBghO1BCXH40+kWw/I93PVMhGUhIAGPXeZl8zaHNp0tzhll4TjqOBoGeD2C8++u5s7fBhjY3VC/p4DHEtw9KcaLMxI1wX1Q8qvxPi473kNRhcuz0+K8udBRwW06cgGP4LEbfIzubxGOSV6ameCJt+NcMtJk1HAPf5wSpzoowYVfDDc5/xgPZ/wtogLsMslrdwSoKHe59smYCtBLJAufzsTjFbgSNhW5PPpBnA8WOWDBXeM9XHyCF9tVvwc7KyR3vhnni8W26lCIwuUnerh8jMWYOyLqtmp4dIKPNtmCS/4WUZ+ZMEz9c4A7no1x228DDO5ukLCTNUdNCEckNz4Z5Z47/HRtp9oiBFRWS+56LcYHS53dz/42FBxqcMt4H5M/jPHyCje9g/uBvC4LkbMW85RhkJOVxa7P5nc+T+xa0m7ryDxuaPQ59RsRFLSGTt32r4HN6hDSfpDaMKAyCI3f0DR/IzRN0zRtT3sN7GcVSSZ44Jh+Js9MSajROQeOG2LRxpKUBiXeDAFxqSLzVoLyKAQjQIbg6AEW//dUiMyAoDoi+eN1Wbsq20uJ6hywAVuS1dliwVoHPBCOS555N870BS63XCIZNtRD9y6CTQsll5zg4y/PhnFCDokEnHayn069TdyS5AVTQHDT/2IseDSLT7qb+wwyLQOmLbF5+IlYTSp+oM4oZBQuONrDicf4+PCTKP/5xKl5rOaKfF6Qi4l8OI/X+/TZd7V8w1ApsEU7KD5+KFeIPGY1XXMbSankxdsCdOpq8dqnMQwJY0d7eSbX5OqHIvTv48GfoQLyVO2GIXleKKtWqyxkGBzS3aJtrgndTKhyoRqGDPTwyTcJvl1tY7Q2Ofd4L0O6G1z9RIy2OQJvpskTz1aT4YeQMLjpQj/vrXHYtM6BoOSqk7yUJgTjRnh49r042JJDupiMGurl6NEOyybHAEHvQ028Jrz6eYLK7TYD+5jk53mZODWKV8LKSknHLhZvz45RVeQgBFimYNlqp2akOQGnHOXhwpN8/O+tMEP6W5w51seGkijzt7k1q1qkk1LJR49mUlENr06PkzDg6jP9eHwCyhx6HWbh9SaoRoIDHdsZDOxrqdHzbKCtQfdDPUiPA+0SEJNQqY7tr/8ZItMEo63JA9dk0O6FCC9/adOug0lpleStD2L4PGDmmPz7Sj8j7gtjF7lQIvnl2X7mrHY4+yiLKV/bEJX0PNQkv5dF14IEW1c5EIe8fh7aZ8V479M4c7PgrBN9lIXhq2/ixOOSQV0EcY/g9U/iRKtcDAMicViz1d29ukqy+OnPx3g4fqSPz7+Oq9H7NA7sUR2Lr8vFRKd+zZT+/cHv3/e5JxSCTZuoPmU4l4u8JlrSTqJG69N6xL6FkE2SIS/47pxETdM0TUtL9V+6GRAtlSxamuDMU/z86QrJB18lOP4ID+ce6+XW/0b489QE027JYMEKm+1bHW4Y76MkJHluocON433MWGzz2PuO6hAolww5MsG1l/lwHRePBV07C7p44MSxfs49wuKwX4UgW2AYKh2fdoJ7P7OZOtzD3Wd4ubw6Qf9DDE5+LAaHCohJChMxfnW6j8eeC2OIZGqxhHMeifDFnVmEg87uL8tgj9H4dlmCIwYKfF6BIaDahsKgJJrMPDDaC356kpflhXG+Xu5w1GGC4ohkVRj91Z8khjBp/buMX7mat3v1gr2N3KdGyzasp3LcBMYCy5q8sQ3NhsMOtxh1uJcLbqtiwVaV8fHGUocBPVQ067rg1n4/ZK3BuyjcfJaH2asctnxt8+jFXn75gMqrlhIWrXV4eJoNHodvtzhMODfA5SMSbHKgosrloUds6A+UwsgCD+cNtniw0GZAnsnGILw8OcozN2Xw7EsxyFQZOM+8H+OWC/08OTkOLjiu2tenhQ6fLoNbz4LOh0j+McNRKeE+iMUlj8932DTHrun4alVrGUoDiqskv3k6zNzZNseVSC461aRfB8H8LaRfYB+HY8Z66NfFpPv5QbVMpoQZqxxy25nkefc8blKCmzqlVEvuu9bP4+/HyM0S3H6yh79OikMy++jhqbZK47cTlFRJbrgwwMvTgiQc2Frs8q8XbMgF2joMyvdwcV+TFzc5jDzeYvFGh+mfx/jleB9TPkqAVJ2Qj7wT4/1fBhhyXWjXcRPAc984UC4ZMdTDlkr4+3Qb4pIbT7EoC0ru+MKBdckR+tS0AWP39+LGEyx82QZrN9sNVnG+KYghvAMcO/VpZvbpAxkZez/3VFXBqpW4Z13PMcDCpm6rpmmapmlaY9r7mEwA/vp2gqU7JTef6+PGs33MX+tw7sNhdqxTkcBZD4R55doAnXIMZi9P8KcXo2xd5XLq9SZ/eD0G7ZNzNXMFf3s/zhM/9TFzZowuHUzmP5SNKyVffetw2LUhNb84C4qKXcLx5BzdaskHs+P07Wdx1xlenp0Wg66owMIr+Ogzm6eu9FPiCkrLHJXH74NN39jMXhznkGxUKmvy9WzfmXyMADyCrTtdJpzg5YZTVK6wYcDaHS53PxXmvdUuSPhJD4MuOYJR5wa44twAjgsffRPnFw9Gfozr2e/VYWcyWRZy0WcLebZLFzLrK6hXUQHbt1E2bgJHAd82eSMbQwIuHGQyo9BmQblUwZyA9cUu67e7KjDe28ckGYAcnWcy4+sEkybZ/GliFvjFrrn6HgOVReKFyV87/P0X0KezwZrtaiWI3/3GIssPQWlQ0Mvipy+pApSXjbQoLnWYO91mxXkOo8ZYfPW1rQKcoMtj78Z4+bYMLrm5uqY9lvp9tUxVcwIfKsvABY8FNx1pEeqp7rMsuO0jW92frL+xYK0DEn59noeRQz2UhV1eWZWmo/UxybkFHibNjoMl1XsOLNrowrcOg05Up8Y9YsTUgKEhOHmYhz/+NchvL/Ew/EiPep2pDhu/AL/KZnpqSoLHbsgAV8XVXdsb/PEKi4AHZLbJYW0ELy6xIQq/Ps3LEx/FKNvisqFcMjDfZPkCB2EIZq106NpOcP/lPv7wf7GaxnmADHX+Mg3UcTMErgttswX3HmcRG26oEeuI5L4vanV4utC3vaB3fw+zFyXI72yoIqMty6xxwznjs2W82rkr2Zn1lH4LBmH7VirOup5T0UG9tm8SnY6vaZqmtTDfnWyZBVPm2Uz5JKGKM2Wi5pYGAAQrvnUYemkVxFGpqa0EdBaMu6VaBb2prVuwcb2jbg8I7nutsibZLTu5TR9QLjnjtuqakcAAPPKpDR8k1P8lqoAYyefmQM+fVEF7wZUPRtR9BtBRcPHdYXWR3S75+PaCI68Jqf8b6rXd+EyMG++L7l4rKAOVZZBs+8QFDhM/DtUUDjPUfnVQvyeRx0RZiP+rQh6oW1CvogKi1aw7cSi/4GAJ6pMsE2xXrbqwa4R3Hx8PCRCBEweZeDIMTjjS4oh+BqE4XHmCh2efje/5pGQ2r0Ttp30bg/En+/D7BV06W9z5v7AamW0tGNjTpEMrQZ+/QKYFfzjTx/j3VHEMr1fw95difP14Nmef6cF193H96kKGT3DqCA/xmKVqwnngtk+dOqkIgAWnHuNVy1rOTdDbA2vScWlIqTonQmF2H71OZv3UfeyuvyRQDT89z0PUhhfu8tGqtYEZMDh9sMnU1XUKkAggIdXbZAq8JvTsZnH2iZCRZZDbzuCQm0NQIqGrwZCeFr8+zqU6Bu1zDSYcbfHrzxwEELVh+aIEZ5/qp9eRiX1ONbJd6NzWoOvRXmxbYggorXC574tITXG/GJw9ykMmkhfvSnDNaT7CsXregzQnhjFVLufKOct5REo61q6WHwxCKMjmsUO5GpjTbI3UWhL9Ba9pmqa1OPtOuvSiRt67q/T43boCPECn5H1taqXl1ld1OVWN2Y9aXu7QWs9LtcJg9+2ACvizhVqGLrPOd60AOif3VbvqeKoN7eo8vn2dx2Sh2tCj1k+Hel5jx2R7DxXQTeig/juIPF4cNYCbi3YQDIdr5tQnoqwe3o+rxeF83txtbFAmzN/gMrK3iStQc5Nd9fdFoy1oJaiKSrpmqRoVOECuoDykitmdOdQkxyOJRyUBvyBUYnP+aA9U1NlPAvr0MdheLdlRJvEZsHqzw1HDQhRcV83StbYqdOnCz/JNXNNge7FLVqbADTm0yzGgl4BUAoEXnpsa5crTvEhzH59nCyqqJaP/HWHopSEOvyrEwMuSWTapp7qQf4gBPsGpv63m2icjFPTzcMZgc/eq7OnCK5i3xuHUoRaUsOuYIQWXneQhFFWBdBd/zX22R1ARllAFlx7noWJHgoyAIBGTtPNJThpkQlWd/UQko0ebrN7hgiMJ2/D5/DijT6/m8F9WU1wp6ZEBRCV3nehh9RYHV4LfAivu0radCR0EEgiY8PQ8h03bHa453rPP0MNrwbKNDoPurmboL0IMuTLE2FvDu88gLpVcc26AHl1MPpiRQa9uJhMu8KvO1RY2JVwM5I0R/bmpopTi6mp17klVvz9yANeJIXzY3G3UNE3TNE1rLC1oNqXWQrhiEM8fPZhr162D4mKoqmDz0N5cI/L5tLkb1+A8MG2eTTgsmXJzBiQEBOHZCX7GHuEFD8xbafPn8V61pF0VfHhDgLe+jMNwgZFt8uncBD+5K8r5f4vywKQ4QQcYa4CE8jCwQIJHcO9P/VRUuDy+1MVrJtOuR6gMmqenxvjtTwJQBoN6mZi2y/jbIpx/b5Rz/hlj9hqHm0/z4Lg17f5ogU1xhWTYQM+ey0PWEzRWxoFSoDL5U1HrOXE4cajFSxMCsB6yLBCmwHbr31az88Lzn8bJyDJ4+HY/BAFH8PEdGXTsYvHxWjXd6FcneGCbWlbugrE+3voyQdbJJhEpeHBSnPP/FuUnd0WZPicBWSYMFEgpYbGElRK6mTx6ZYA3Z6jVCgxUpgD9AMdl0ow4b/wqAJWCUQMtFi5NcN6fo5z/9yi3vBijNAFnHqkKgQoBRCXTvozT+xCT3LYGcec7X6XKFIgBZSSPGWp5w5R2gjcnV/PVnBhfLkxQHnRZscZWhQDT8bh9NynymTgyn2s3bSReUgIlxZQM78e1Io+pzd04TdM0TdO0xqQDe60xSJHPq6eM4LytW9naLcAFIr8R14puTgKw4KJ/VFMUhp0Tsyma3IpAK4Pnp0YhAQ+9FWN7FRS925qid1qzJSi54akI1x1p0rW9weQlrsp8aSeYVSwpqpD86zQPCVvy5K1ZVG/IYcuz2ZSEJPe8EsWplFgmmKZQ+/fDGx8nWLnV4V9/zSDQ3mLuKkdlrSSzZ5xSm4vGeJBGsoikCWtLJd8sTuAKobaVZBpqesGuwM6Gzu0M7Mezia1uQ2xRG5ylbZj010woTwb3XnjowwTCIyhZlcP//pjF0lUJHp1rp+da9gZgw28erKZXT4uyd1ux8blsFm9x+fe7UdaXSp55J0avwyyCs3PY+EQ2b38V5+8vx7j/NA9bS9/N16YAACAASURBVCVzS6XKCuokmLjIoUcng3OGG1iWILQhh9DCHFbcncXUOQnunBJT8+BTxw0gU/D8R3HKEoL77gywJSxYudVV22wnmLvOJT8XzhxuIlLz572Cdxa4bNjiYJgCq1ZBUNMAs9Zxiztw/BAPiYmtia1oQ3xxGypm5/DgVT7VyQQQgD++ZXP7Ozb3TExQFZbMXWqr6VUtL7AHQOTx1uGHcdbGTewc2InzRD4fNHebvpOLymqJo1aKSfWX1f53St3sF7eexznJbcWTj6/d+SNr3Zf6qds5lFq1pnbGRn37SWW5uPVsM17rOfvaX+1272UpXU3TNE3T9k3QZ6Zk0NBa5Z61AyYM2L4Rlg8aQ1AcXCnnP3bt5cX0X/kKuZ3rX7bKAapkTQp9a2rqTNS9LweV6uygiuTVri4vk7cZQo2Ih1D3eZPbzEo+Ng6USdUhkFIq1eMk4EnVwkiKJLfrR1VwSxb5IwbsSAaoqXnJ0eRj29asNMEWqYLB2l2B7VEdBykuUKmWfFNTb1BTaOoLEA0T5i2OsOmYesosNqDO8jmGbLuMQK2CD7Ulkm2uSrY5h5paHan7gqjOibZC1eAIo4bCs2q9NgcISvXctVJtS6De5xzU+wBQLVXwkpP8v4s6bqmU/wxR0xEiUZ8Bj4CoVLVIUveFJOwADqv12alIFh1NtSuOyjaIUdNOD2q6UT0F5pCouf6tVbHGPQlIRGFBx8lsF+Pre4RWh5B9GbZwJYf2qn8d+wT0aSs4prsg4BGsL5O8v9mFGJzX32DqFkk0lT3hwuV5Bs+vcFXM7cDoDoJu7QQfrnGpSAbZpx4i6N1J/aLGbUnhTsnsbVJ9pi24Js/AY6kPhO1Klu6QzN4ud/2u5/jgtB4Gy7ZJlgbV70x+K0G/joKl21xWJTuFRrQTtPFDeRwKuhmYBti2xDIFpgmzVrm0bwX9Oxi7+ghMAxZvk8zYUmfJxSic1sfAa8CUte7eq/8YJqwqhGUjPSAaqxtgFPAL4LfUdIFpmqbNA84BtjR3QzRtb9J7pWJNaylMVLCW8z3uS9WUqE1QU8Ohbk2J2rzsHtTDnjUlagugquvX5UPVjqjNz64q8bva1G0/hm9Tr6fNvh+aNjxArlBLz+3vfZmwR2+FSc2xHPAd71VWnfsMVO2P+oha26z7vCwBves8PqfOY7youiH7S3xHW7SGF4cLBhuceoKfQd0Msr2wrlRSsDjBX16Jc89NmWx6KsLcxbb6pk4IHr0rm2+uqKSwCojB5Wf7GD3cS+l9ITV9JCi59bYAg/O8FJc4hG1Yvt1lzJIE/5iagC4GD97Ris3JZQ0jCdgalDzyepT3lzuQgKtO8PDzswO8Pj3K0ilxSMC5oy1+fn4Gr7wT5s63EuDAz0/2MPAwk2nzbH5xqo8MH3TpYrF5q4PHBOe/Yc47J0CfjgaxiArtLQte+zzBjBdiNZ1HCbj5JItjx/jp0gqmXFa157mtaaV23sJKSGqapmk/djoVX9M0TdOakgT8cOV4P5mG5Ijbq+n/sxDTZsXp0N6EToJEQqoaFbueI4nH1WoHODCij8HOMHwyP8GQwR5VFyFpyidR+p5SxeG/DLFqrc2JR3u5aLgJLmwqcunXK0ifC6oYfHEV0WqX0cM9KkPFD4d0Mpg+J86A3hY9M1GrcUjYvMNhdIGX0V1VtpFtqySE+5+NM/CiKnrcEGLlJodeV4fofkaQR96wEUhOeCBMz9Oq6Hl+Fd3PqeIPz8Z2zwgR0OtQk08XJnAcHUtrmqZp2oHSgb2maZqmNSUbzupvEpaCdz6Jq6kV7eGRmQlufSOqplB816B1THLuMJO2XrjxxRiXHOtVU0aSvB4BPQX44M/vJqgMSs48wtx9DnsMcATZGQaJuARbclYfg4ghePLjOJ1aC3I7GuCqmh5L1tjsLHc5aYxXtTclC+gsGNFWqDoQucnVY5LTPcIuaipQLPlTJ0/Q8MD1z8WYvdrBMHTGiKZpmqYdKB3Ya5qmaVpTcqF7O8GOSsmmSqmmfQjAgFClVLUYYPdk8OTKCBKglSBkGazd7MDrNt9uceg92lJ1FWozgKDE57jkZBlgQ/f2gm0lORR91prNH2ZTUi2ZPDMOhiC/u0HPVrDmaZsnpscZN9q7a5a5ZcIl/4txxSk+NVl+X4PrEhI2LP9zJuWLcyj/IofqOTnccJy1WxFAV6r3w2vudUuapmmapu0HPcde0zRN05qSgJIQtMoQ5Gagii+a6u8MH4R94LjJVQ5k8sdSgXLEhjN7Gpw3xkuPXINbL8/AY4BlwAVv16knl0z5TwiBHXHBhM0lkn4nVMIQgyk3BVi3JsHidS60EeTlezljlIeSoBchwUXw57siqskCqHC57cUo7z0UoHBx3RL9e75Gy4Sz7w/zyRdx8CaLOprsuVKGHqjXNE3TtB9Mj9hrmqZpWlOy4LVChx45MG6UR3WxB2FcX5Pbf+Jn9OEmi9Y6XDnKUmnsQcnVx3tYucNlcwIG9zbZuc0mJ7uc3KMqaH1IOUN6WtAvWe3ekWrVjBBceZSF4zOYtlAtPSlAFdMscZm/JEHfgV6G9TA4pbPBIbkGmWMryR1VSbvWFUyZE+eiK7w1c98DgpdfjpHlEwzM89Rb6L82IaAykVxZIiTV6iCROg9ygSrJ9pjEcZOrPeyjz6AJCHTxPE3TNK2FOchH7GsvtZVaXspVP7WXvhJQs1B0nYK49S2RpWmapmkHygAqJW9+FGPsGB+v/MrA40hkwKCo1GVNmeTKiTG+/H0GL/7ej9eA1rkmb34WI8uCfgO8vDs/AacaahWLLoKpCxL89Wc+XEdyRL6HN+8BB4GbaVK50+bZzx1a9TYxreT+swT3vJPg81Fezj3WQ3lUEI24YEroI+BQwZSvEtz+Ez9TPo1hGsnv0w6Cf02K8tTvsihcWpP7bwpV9b726LsQgnvP8RIeY4IhMASs2uHy29fi6urDBV9rweOXeunc2eLQTiYvPeRn1mKbp79x9hzZ1zRN0zRtrw6+wF4Idl1ZxGIQi6q1l+2Yym10bXASEkQUYcSQmOAEMAwLw6uCe8METwB8AfD5VD6h1IG+pmma1kAC8MAHNku3SS4aaeIJCBYsTnDvFzZE1Ij7Xc9FuHS0BRa8PzPGw1/YdDRhw6o4L8+1a6rLe+GDWXEO7yL4YJtk5BCJAFxb8sXXMR6dpR4bqnR5b3pULY2ZHJN+5u0omZmCUAyenGxD6+T3pwe+LrQpHBBn0RqHneUu2BK8sGClwwtvhqkqd9XSiwZsD0umfhyFqNy1bOf0mTFG9EmuY+9KhFHPV2hyqkEs5PDV1w6Gqb9mNU3TNO1ACPrMlAwaCq7T3G05cEKoH8eF6mqoCkKkEpx4CKP9l8gB31DBairZRCYR1ECGQzUOHgR+TBwsElgYtKMVPcgsG4Tz7ViE3QtvNmS2gqxsCARAuvVfeQgDtm+E5YPGEBSfN/n7oDWe9vJi+q98hdzO6vhrP4xhwrzFETYdk9Go++ksn2PItssIZOpo4QcTqpN0QcfJbBfjm7s1LYKQfRm2cCWH9mKvees2EEWlpHsBHzWj3onkfTJ5eyqQjyX/bdTZTuprPJr8rAtR8zyR3EcUqP1bl0jenuoTrz1KLoFwct/Jef67ktQjqPnyvlqPjaDS/FPtj7DbMnyAmmtfe/9uch+OVNswhcpCqG+03jBhVSEsG+kBYdfziIYwGvgFcBN7ThzQNO3Hax5wDrCluRuiaXvTgkfsRc1foRAUF0FVZRzDWoXd/7+sHzAJKE1++dukcuur9mPTxQCYID2oy5TD6bvk52zdNB6vJ5PczhY5OeBJvn06YNA0TdMOhIVaMq4+HuoPcP172U7qG923l2p0BrsH1al97I1g17J1e9xedzv13RYAAvuojGeQfP26gp6maZqm/RAtL7AXQo182HEIlsOWyFrCbday867n4N03aLiyOw4IBzW+MYNVzAAuBwbTZsNVZOwYQ0cOJbd1Dr4AmJa+LtFaNlHnAyxlPZ1WyRTe+h6rNY/ax0Im/9DHTdMOVJ1CO5qmaZrWMrScwD4V0FeHoKrcpTJ3AZF+s9kgngMWNWFLllDe40bKCZAhL2Y7p9Bp6VhaZ+aS1TqZStiErdG0A5WqRyFdtY6Wk1A/Mllg0k79XyRAOAgskBaWB0wPGEKlxppe1bHlqXU60QFj40kdN9cB21bHyU3UFAa1E+A4LmCDkCAtDGFiedX6acIAw1LH0LKSFc90DRFN0zRN07SWzNo1SU+I9LyoS13EhoKSihJBuOMMige9TVcxjRWsacaWRVgt/gv8F788mwpOpe2y8wiH2pODRXkztkzT9iZVjyJhQyQC8QjEw5CQZdCpkGj3NVRRRIIgHmIYxHCJY2PjwYPAh4uXKH6yaUsWnbE29UZsHYDXm4k3AL5M8PvBMKh/9Fj73lLnwXgcoqnjVg22uRW35yIiWVsIUQJUYxLDIIpNHBeJBy8SLxIfcTLIoh1ZdhfM9f0Rlf3wZ5l4/ODPUMVChdB1JDRN0zRN01oYCyfwOZvWHkO7Di4ZWUbaXIgLARgQqU5QvM1D2F7GjiPvo1zMAjZT1NwNrGW9mAJMo1K+Tmu64WFJczdJ03aTKkddVQ1VpRCtApk9j/CgyQRZhkkx28UOoBSo3K9tFuEBWoHMpWv3jkToQBdGIb7+CSbdyGgNrdqqgpPpcl5paQwDbAeqqqCqGGIhG6PHp5T3fZ8Ea7ApolhsRR2z6v3cqh9ojSE70IX2JOhB59BYnCWn4bHaktEWctqA17v3QqGapmmapmlaWrFYV3A2VZxF+ed34Te7062HSUZ2813QCQHChEgItqyPUx0roeq4P1PMuyB2NH2D9lucMjGDsuZuhqYlpUbnJVC0E0o3g+NZQeyYxyllKgkqiYtKamppf18JVIHKUrayEoAy3sGS92LSme6VP2Hn/GvxWbl07gWtWyXn7evR4O9UO6ti22ao2AkyMIuNR/2LAN9QKSLsb+dL/aJAFFfs3FXbdycT8cksJL3pVvhzdsydQHYudOwGGRn6mGmapmmapqU5C0Q5xTxPMc8DZ1Ky+M9kb2lF9469ycpSI33CSC5x0wiBfqqYk+uqi8fqatiycyPlVoii0XcBbzb8TjXtYJacVhOPQWkRbA7txGo7mU0n3ANsa+Sdx7FFMTbFrGYJcAcwmKqvH8VrDKZL69a0bgteXYhiT8kU+GgEtm1PUJzYgNXrOTYPfgAVjEO80XZeTUxUAztZy2zgGjLnXEzRpt+RbfSnS7sMslqxqwifph38dKqKpmma1qLULZ73LjuHvMtOTiJceRkZJX3Jjfchy5+Dx+dgeU1V/T25kG2qAvN+S10UJp9v2+AkbBJRi1A0SIlnFdHcNZQvfo3QWVMa5iVqWgMQyXAmtYZzOhICXKmyXYIVCYqyV+D0+pBtGX9h/xZ6bCxL2DxyDJnkEXF/Tas1x9GB3sh4fYt2NSyxq4gIaXvghADHhnA1lAer2JFbSPZhz7K97X+atV3VI16lmlfJs0+mMHENHdaNpLXVBV8H776frGmapmmapjWlvVXF/4htrT8CehGWxyEZTNaaHrQtORqv1RbLkngCAsunKiqb+zH65rqQiKtl6hIRFzthELfLqfB+SXm/dcAyisRnwKoGe3Wa1lBMyqiqiOPxesnKUZ/5dElPThVWC4cSBEs9lOXMpCLv/9u79zDJysLO49/3VFVXd1dfpufOgAzDQECIoIiKCKKrMSGrLKxmXS8r6sasPDFZk9VdE7OaZEnyuPtEsu6TjZFovESWqFGjohFJxCgBYbzAcBtgbjD36cv0tbrrcs7+cbpnBhzm2tWnT/f3w1PdTU0/Vb/qy+n61Xve9/0We8PnaP0I/fEb5yHGo3exi4sYTq6n+9zW32fENgb3Qm8DunrT6+bLnPEQpcfFkcGYsdEphn7uDkbO/AZ7w18ze9t2nrqHircDtzO55dX0rnsLHdyVdSRJkiQ93bG2u9vMrrCZdOn8dZSTc+jhTLo4l75dPw87z4fJtRTaI6IYQtQkKiQkcZEQNYibgSQuEEfQrALt20mWb2LknAcY4wnG2M542Ao8wcnP85Va73Xhbv42eStTA6+n/fE30rdqnO4lFaIMVxAPAZIAExNTDO0tMzb5AE++5K+Jwj8wwuZsQh2XB9gd/gu75+CeLg5/yfeTp3jOQ2+lc+jl9K2YpLPS3rKpRcfj4EKGw+MM7atwoOcrDF70VYbCt4H92YQ6DsNn38Ewd2QdQzkQjjBfY768oHZsTjaRJOXS8e5jHwObmQqb2Q/sp5OtdEHSTZFOCnQASynRS4VOyrQxRZ1xJqgzTMIgMEGNCQhjpKcFT5xg1l8BvsS8PZ9WC9onGIbwRYb5DiH5OOvu/m06tr+OvtU1lq5oo1icmwUnZ0bnQ4ADA7B/R0ytuIX+y25igDsgbG1tgJy5jZ0Qbuah5DZ6eDWr7/3PlGvPZ9npgb5l4WDBn4vvW4ig2YSBvU0GdxeYLN3DjpfexFS4h3Q3AilfDh6P4ODaHo1G+nMeTx8PZ372i4X0DL+Z0p8knNyUPkmSdCTHW+yfaSK9hH00gMb0tVPA2KzkOpKbgC/jyL6ydYAk3MkW7oRkHeue+AA7Nl5LT6XCqlUVKl3TnxYOm9Z9sk9aj3AbU5MwMDDJ/v4GScd9bH3wD+GG753CnSwSYRcjfJYRPgdfuIyzuj7I9qeuYPnSMstXtFMuz3xea75vExOwZ88YI6NThJXfYsslfwTdj57aY5Lm0sxA9vTPdLMBY+MwPgoTk1NMVhPqcYEoqhLCKIQxEiYIdABdEHfTTDooEtPeAZ0dZSqVQFcXFEuH7iPLs2kkScqxky32WYiwvGheCVvZyn8CfgP415y+/Z0kT53GqmIfvcWzae+EqACFUjpiFUXHd5JnHKeL4MUNSJpQq8FodS+7J5+kWhljPLqdias+A3NyMvtCk8C/u5ttvBboZfdd/5G+9tfStreHVaXT6W5fTVs5/b5FJYjCoV1BjnGrB3f2iOsQN9PV7UdqW9nd7KfROcS+Sz4FfA2otvxRSrNhZnS92UyL/FQVRsZqDJV2MFYeoNS5mR33f4/43/wYeBQYOY5b7QCeC3/6fM5401U0q+fRNbiM3sYaeiudtHekv3uFQpYlfx6vtilJ0pHlaS7ZTuA5pNMCpPlqDW2jl7Ok61IizqDnyZX01c6nUFtGqdCZ7iqRAFFycKX9hATiQDK9qn29VqNZGqTavo2hnqeo9/YzyAamwg+BhzJ9dAvXeZSTy+jjUgqjK1l24Aw6JtdRqC+lrVROX5Q5yvet2YR6o0qzbYCRtscZfs4ummE3w2xgMtwDbM/00SkbIfk5LvnJJtauT1/4yYuZU+ynpmByBMYnq4wu/wkTqx6jzCNsCl8mXRtntpzF+uRqmryQjn3n0NN/CZ1t3bR3Q3sH6Sn7SfqC22MPwYOXlSA0jnmrJ+cK4Hrg12nlBpOS8mYDcC2wI+sg0rPJ04i9lAe7qHV/iX18CSixhzMhWUsPp9FGHwkVCrRTooN2ygQiakxRZ4o6kwTGaDDMMHuJw07SPyCDJ3D/7cAFwI9b8eAWsE1MhU3s4TNADztZC8ka+lhNkSXEdNJGB0XaKdNGQkKNGnWq09+3cRoMcYA9EJ4CtpFOTjpep5Mej30BQNkJIR2nrlZhbBjGR/vZf+lnafIjdof7gMdbdM/b2Bz+YvrjdaxMLqXMpSx94I10ldbStQQ6OvM1FCFJ0hyz2EutUwc2Q9j8jBNUC0AbzOyxTjL9ubOxxdly4L8D183CbS1WI8BGCBsZetr1JdJj5sz3LSYd0ZuNdT9eBfQC/2cWbks6cSFKp4/074Pxkf3UXnYTE3yHXeFBYHIOk2xlX9gK/D1R8jcM8Qq6734/HZXnsGK1J8hLkvQsLPbS3GvSunnWRWBNi257sZutF1+OpBdY0qLbVlY6iZhe/P3gaPi8aqbTO2wkCWx7DIYGJym/5nfYxOch9JNt2Brbw0ZgIyS3sI7XMfi9/0WjuZw1ROzKMJkkSfOQxV5aeHI0mVfTYuZX49NseGnYzU8f/yxDm67mrGXLqHRHFNuyX/k9hHTOf6MGgwODbBlqMLT9I9Te/NHsQh1NGGArnwY+PRd3Nv3e30dJUq5Y7CVJaoU7GIZzr6efFzGWvIeu+89jbeUldHY1KbUXiKJD+7m32syCeI0GTI4mjFfHeKq4kann3sm+8DFgb+tD5Ioz+iVJuWKxlySpte5jf7ie/byYyeQ6lj9xGZW9L6ejK6KjG8rt05+WzO5I/kyZTxKYGIOpCRgfq7J7zd/RWHsve8I3gK2zd4cLiiP2kqRcsdhLkjQ37mV3uJfR5AI6eQHL61fS9tPrKIWVdPZVqXR3UG6fnvc+PaPmRIr+TJGfOdV+bAQmxsaZHK7QqDzA8PO+To272RXuBfa34gFKkqRsWOwlSZpLY+FhxniYffw9ncmfEHMRa350DaUnX0shrKbcUadreYmOCrSXoXisP9UJTNVgcgomDsDEcJ1avUTMBobP+ir7n3snTbZOL4jn3uySJC1AFntJkrIxxkQYA7azha9PX7cc3nU5fde9hErX5YTCOSRJN4UwQQgNihSIQpGYGo0YmnEbSeiA8BRx8jCjI/cx+sv3AP8CNE4gS/EEP1+SJM0jFntJkuaPfrj5awzd/DWGnnZ9hXRLxA4gIi3h48AQszMKfzPwjlm4HUmSlAGLvSRJ89/49KVVrsdifzgXz5Mk5UqUdQBJkpQ5596n3OZOkpRLFntJkiRJknLMYi9JkiRJUo5Z7CVJkg7xdHxJUu5Y7CVJkg5JcPE8SVLO5KnYl/BVdOlYAunvivKlMH2RsuJxQ5KkHMvTdne3AnHWIaR5bhT4etYhdMIeJt2nXMrKZ7IOMI84iCBJyp08FfsrSP/Yenqc9Ow6gEuzDqET9hygJ+sQWtRekXWAecTnGZKk3MnTqfh14IysQ0jz3OlAI+sQOmFNoA9HCpWNbtK/sUp/B/09lCTlTp6K/Y+BF2cdQprnXgA8mHUInbA9pGdbLM06iBallwIbsg4xTzhaL0nKpTwV+9uAN2YdQprnrgH+KesQOmFPkJb6NVkH0aL0ZlybY8bMaL0FX5KUK3kq9v8AnAmcl3UQaZ66mHSe9veyDqITtoV01P4VGefQ4rMOeC7wtayDSJKkxeMNwH2kc1ElHbIS2AZcnnEOnbx1pMe312QdRItGN3A7cEPWQeaRq4C/Il8DH5JabwOu9SXNuj8A7gUuzDqINE+8BNgEvDfrIDplLwYGSE+NllrpbNJpOzcB5YyzzCcWe0lHYrHXvJen7e5mfBj4IfDnwG7gTtJSs5d0Vd9enBs3GwLpnujdHPnrGYCp6fdtz/I5AONA11H+XSenD7gAeCXp9+hXge9nmkiz4V7SwvUJ4N2kU5AeJD2+PUU6Bz/OLN38EIAa6TGlzLMfn451/JoECkDpWT5nIeoC1pNO+TiXtNR/MctAkiRpduSx2AN8E/hH4ErgZaSvsPcDI6R7eDezi7ZgFIAHgIs48tczkM4JLgHLOPIT45i0eN4x/Xk6dRHpdnYDpC9o/RlwF/7MLyTDpAuF/jxpAfsl0n3uvwS8BbclC8B+0mPOSo587KmTTmm4nSMfeyJgB1ABljzLbSwkgfR4PEw6ZedW0rU4JjLMJEmSpBwZzDqApEWpmnUA5dLMqfjuZS/pcJ6Kr3nPOWRqNZ8cScqCxx5JkrRoWOwlSZJSviAkScoli70kSZIkSTlmsZckSZIkKccs9pIkSYcEFv5OCZKkBcZiL0mSJElSjlnsJUmSJEnKMYu9JEmSJEk5ZrGXJEmSJCnHLPaSJEkp97GXJOWSxV6SJEmSpByz2EuSJB3iVneSpNyx2EuSJB3i6fiSpNyx2EuSJEmSlGMWe0mSJEmScsxiL0mSJElSjlnsJUmSJEnKMYu9JElSyoXzJEm5ZLGXJEmSJCnHLPaSJEmSJOWYxV6SJOkQT8eXJOWOxV6SJEmSpByz2EuSJEmSlGMWe0mSJEmScsxiL0mSJElSjlnsJUmSUi6cJ0nKJYu9JEmSJEk5ZrGXJEmSJCnHLPaSJEmSJOWYxV6SJEmSpByz2EuSJEmSlGMWe0mSJEmScsxiL0mSJElSjlnsJUmSUu5jL0nKJYu9JEmSJEk5ZrGXJEmSJCnHLPaSJEmSJOWYxV6SJOkQ59lLknLHYi9JkiRJUo5Z7CVJkiRJyjGLvSRJkiRJOWaxlyRJkiQpxyz2kiRJkiTlmMVekiQp5Yr4kqRcsthLkiRJkpRjFntJkiRJknLMYi9JkiRJUo5Z7CVJkiRJyjGLvSRJkiRJOWaxlyRJkiQpxyz2kiRJkiTlmMVekiQp5T72kqRcsthLkiRJkpRjFntJkiRJknLMYi9JknSIp+NLknLHYq9W8wmSJEmSJLWQxV6tNpF1AEmSJOkUVIEk6xDS0Vjs1Wr/L+sAkiRJ0im4DRjPOoR0NBZ7tdpbsw4gSZIknYJrgUrWIaSjsdir1bYDq7MOIUnScXBdGEnPtBzYD9SyDiIdjcVerbYReFHWISRJkqSTcAGwC5jKOoh0NBZ7tdodwL/NOoQkSZJ0El4FPAKMZh1EOhqLvVrt20AZuCbrIJIkSdIJuBI4B/gmroqvec5ir1YbBL4A/DpwdcZZJEmSpONxBfA+4PvAYxlnkY6pmHUALQpfBzqBN5MeJP+RdO79/ixDSVrQ4qwDKJeqQD3rEJIysww4H3jl9PtvA5/KNJF0nFz9VXPpXODVpIuQnAb0AXcB5wFr8BQnSbOjDvwr4J+AUsZZFoKIdIeTHmAJRz5WN0lHtC7kyC+qRMDjpMf6jtbEPGUxsAo4A7iP1g5+xMAE0NXC+5B0/GLSVe9HgX3AE8C3gIezDCWdCIu9stBHuhdoOzA+/d4n35JmUw1oi4/tHQAAC5JJREFUyzrEAlIDCtOXI0mASY5e2qdIj/XzeRpgPH1pdanvA74IXI7lXpoPiqTHqBrpi25DeOaXJEmSpKPoAR7KOoQkaeGYz6+aS5IkLUQFPGtSkjSLLPaSJEmSJOWYxV6SJEmSpByz2EuSJEmSlGMWe0mSJEmScsxiL0mSJElSjlnsJUmSJEnKMYu9JEmSJEk5ZrGXJEmSJCnHLPaSJEmSJOWYxV6SJEmSpByz2EuSJEmSlGMWe0mSJEmScsxiL0mSJElSjlnsJUmSJEnKMYu9JEmSJEk5ZrGXJEmSJCnHLPaSJEmSJOWYxV6SJEmSpByz2EuSJEmSlGMWe0mSJEmScsxiL0mSJElSjlnsJUmSJEnKMYu9JEmSJEk5ZrGXJEmSJCnHLPaSJEmSJOWYxV6SJEmSpByz2EuSJEmSlGMWe0mSJEmScsxiL0mSJElSjlnsJUmS5tYw0Mg6hCRp4QhZB5AkSVogImD9cjjv9XB+N5wfCOsDyYoEehLojKENKNSgswxjQDOCKWA8wACEXTHJlv3wyGfgcWAj0J/lg5IkzX8We0mSpBPTl8ASYNXn4IWbKf/CONHLCrA8okAbpWYHhUKFEiWKFClQIJr+LxBNP/1KgISEmJgmMQ1iGjSZok6VRlKlEdepFxrEFAibltL47iuo//OL4X5gOMAgUM3w6yBJmics9pIkScd2RgLnPw7rv0rbK8cov6ZAqa+NYlyhGHXSRpkS4bCnVsnPvD268DNvUzNlfzwt/NSoU6Sx8XTGvv0O+CmwOcBDwOgsPE5JUg5Z7CVJkp7Fd+EXa/DSBym+YJLuK0uU+zooxZ0UozaKBMLB6n485f1kzdT9AMTEVKkzQYNJ6jSZenw5wz+4HH50EXwHeKyFUSRJ85DFXpIk6ekKn4U398O/r1I5u4Pe8ztoo0xEiQIQWlzjj22m6CckTNGgTswo45N1Bn68lOSRJ+CvPgr3ZBpSkjRnLPaSJEnTPg5v2gy/VaFj3WmsXN5GkcL0rPhsq/yzm3kyF5PQIGaEycY+9uxrEt//P+EGYHuW+SRJrWexlyRJi10xgSvfS+HmHirrz2QZnZSIMx+XP3EzI/kRgX7G4u30R73UPv8hkg8GC74kLVgWe0mStGglsP73Ce+N6XrPGpbUe+gsxcS5K/RHEqbn5O9gKBlldN+rmfz9V8CtAQ5knU2SNLss9pIkaRH6lbbNfPH1t1L+QBtLzltFdzkQ5XCM/tgCUKUe72VkaiVD3yiTfOTt8KOsc0mSZo/FXpIkLTaFj8GHRuj5tT56V/fQvgDr/NMFAk2ayRATYYC9G15M+NA1NL+VdS5J0uyw2EuSpEXlQ4RPt9H3utPpW1okWvCl/pmmaPAoWx98M6UbX0j9b7POI0k6dRZ7SZK0aPwO4W866bt2HcsryYI88f7YAlCjySZ2bL2e5PcupH5L1pkkSacmyjqAJEnSHIhuhD/toPd161lRyeOK97MlAdooci6nr7uF0h8+AVdnnUmSdGos9pIkacG7G96R0P3WtSzvaRBnHSdzCQntlFjDsvW30PZHCZyVdSZJ0smz2EuSpAUtoXDBdym8ezl9KyNnIR6UkNBNO0V6XvBxCh/IOo8k6eRZ7CVJ0kJW/ArNa0qsuLhCOYPT75MjXDjsfbYCsIbeZAvl64Fzs84jSTo5hawDSJIktUoC59xK5X+voGdp2xw/7YmZpMY2YgZpTl9gEOggZjsRS5kP6xgXiEIBipcwvvYHcGvWeSRJJ84Re0mStGBthJe2U1k716P1MROsPO15/GqS8Lbxcd42UeXttRpXfeE2Vl/9al71/Xuo8QQJE8SMELOHmAGyGMmPSVhFLzWSK4DVcx5AknTKilkHkCRJapHi31F+/VJKcTLngxkBlrUx8OAmbnne+bRPXxsB3edcwaNf+DIdXRfTc9XzKC1bQvmMldSrVfbcdDOwhLkeyY9JWMaS6Pc4cN2N8BdzeueSpFPmiL0kSVqQEihOUbiii7YoqzntIQQKpE+4ItK6vuziC7nonf+B9s4lPP+Gd3LGyy6j98wzueBVr2Hpq36BmOqc50yAbjqX9MJlc37nkqRTZrGXJEkLVQShr0Qxk1qfDNfoPftMXnvXPfziPRu4esNPOP/9NxLX6sSNBslIDZKEnQ/8lB+9++0c2PgYq656CQm7s0hLezpdYU0Gdy5JOkWeii9JkhaqUCQQEYgzqPahs0C1f4hHP3kLxe4KoVBg+IcPUFm+Mv33ZW1Ud+yltn+IIhGN8QkKSzpIiOc8awIUiUg4OGtAkpQjFntJkrRQJTHpfu2ZKBWojY2z7VMfo8zSNBA1uq57U/rvgcNmCEQQslshP5DOsw/QyCyEJOmkWewlSdJCFTeIq3WaHcUMdvgNUSAqFKbn1y9LAzECIRCiAhQiQhQRorTQh5D+fzYCk9QIsC+jAJKkU+Ace0mStCAFaHaQbJigPue7xQeKTI6OsOP++5/2kkKgzER/P7s3bqQxMcH+LZuZ2j9AYBmDO7YztG3bwRcB5jYvjFOt1uEnc37nkqRTlt05X5IkSS32FXjvJlbddAa9cz7PPqFOk20UOfcZ108R8yQRZxEzSEQfgTZihoEm0fRp+3OpQMQDbO7/CI2XA4/MeQBJ0ilxxF6SJC1Y18Jd41SrtQymjgdKP1Pq0+vLFDiXQIkCqwi0ARDRm0mpD8AYVZo0dmCpl6RcsthLkqQFK8AjpzHyqRFqRJ6oeEQRgW0c4PPwgayzSJJOjsVekiQtZGM3wK0HGNgykS4Op8MEYDcjCYx/bzd8O+s8kqSTY7GXJEkLWoAfXEb10wOMTGa08d28FIAqdUY40P/HNH8z6zySpJNnsZckSQveL7Hm/04x+OV+RqsFx+0JQJ2YfQzvvYjJDwaSB7POJEk6eRZ7SZK0COwa+DCl9+1g34Z9jNUWe7mPgZ0MDazhwF++AT4HIc46kyTp5C3uv2qSJGlRSaD3NyjeczYr1q+iuxSTzPEmeNkKpIvlPcjOA6cx+cnfpPlfSXu+JCnHLPaSJGmxqbwfPtfH0l9ezZJyicKCL/cBSIBJamxm50BE48Y/gT/LOpckaXYUsg4gSZI0x+r/wrJvvpHBjp1Uzy7S3tFGMVqoox0BaBDTz1htP7s2B+L3/zF8MutckqTZs1D/hkmSJB1TAtd9mPCuLlZcvYxKo0ypGC+Q8fsw/fYAE8kI4yM9HPjCe0g+GuDRjKNJkmaZxV6SJC1yPevvYOQtd9L1a710nb6MCm0UyGvBn5lHP8ZUsp/xEHPgu79N4xNdnHcbbBrNOp8kafZZ7CVJkiAk8PybKbxzC+V39lJpX0NvVCAiyckCe4FAAMaZinczEo1R3XMtk//tZXB7gD1Z55MktY7FXpIk6enO+DDhfSNww3KWTK2kt7tMCTj0xGk+FP3DswRgkHH2MjhWY2rfRST/423wRWA8u4SSpLlisZckSXoWvwu/1QbXxBRXd9N3Vg+V9gIRJSKiw55GzUXRn5kzn5DQJKZBQo06I4z1jzO0uxMe+V34c+Cf5yCOJGkesdhLkiQd24u+DFfvgvNGaT8nouviNsrlIgXaCLRRoEiBQDis5CeHvT0+4RkfBZgu8U1qxNSJqdOgzuSewPD9y4l39MKGN8DXgZ2z8DglSTlksZckSTp+0SXwgtvgwh1wxo8Jaw/Q8fwpyhcWKVYKFCgRJSVCaKNAgYgCEYFwcIw/PG2kP/0vnh6Fn7lMEdMgThrEoU6DQHN3J5P3n8bkw1fCUzXYfDbcDzyZ2VdCkjRvWOwlSZJOXu8WWLUOVgC9j8KaDRTO3EfhnAmK66conB6TLEkIlcL08nYRkD4FS4hh+tT6pFkgGY5IBtqJd3TTfHw1tW1vgC3AfmAkwL7pj6tZPVhJ0vxksZckSZpdRaAEFJP04wJMD9YfusChs/ST6UsMNAM0gPr0JZ7D3JKknPr/8gGuHwWu92EAAAAASUVORK5CYII=;" parent="1" vertex="1">
                    <mxGeometry x="100" y="181.72" width="1074" height="654.57" as="geometry"/>
                </mxCell>
            </root>
        </mxGraphModel>
    </diagram>
</mxfile>